  0
SECTION
  2
HEADER
  9
$ACADVER
  1
AC1009
  9
$FILLMODE
 70
 0
  9
$SPLFRAME
 70
 1
  9
$EXTMIN
 10
0
 20
0
 30
0.0
  9
$EXTMAX
 10
1058.33
 20
1058.33
 30
0.0
  0
ENDSEC
  0
SECTION
  2
TABLES
  0
TABLE
  2
LAYER
 70
1
  0
LAYER
  2
0
 70
     0
 62
     7
  6
CONTINUOUS
  0
ENDTAB
  0
ENDSEC
  0
SECTION
  2
ENTITIES
  0
POLYLINE
  8
0
 62
     0
 66
     1
 10
0
 20
0
 30
0.0
 70
     1
 40
0.141732
 41
0.141732
  0
VERTEX
  8
0
 10
10.4001
 20
10.0004
 30
0.0
 40
0.0499999
 41
0.0499999
  0
VERTEX
  8
0
 10
110.4
 20
10.0004
 30
0.0
 40
0.0499999
 41
0.0499999
  0
VERTEX
  8
0
 10
110.4
 20
19.9995
 30
0.0
 40
0.0499999
 41
0.0499999
  0
VERTEX
  8
0
 10
10.4001
 20
19.9995
 30
0.0
 40
0.0499999
 41
0.0499999
  0
VERTEX
  8
0
 10
10.4001
 20
10.0004
 30
0.0
 40
0.0499999
 41
0.0499999
  0
SEQEND
 8
0
  0
TEXT
  8
0
 62
     1
 10
21.2742
 20
13.3923
 30
0.0
 40
8.001
  1
100mm, burn:0.00mm
 50
0
  0
POLYLINE
  8
0
 62
     5
 66
     1
 10
0
 20
0
 30
0.0
 70
     1
 40
0.141732
 41
0.141732
  0
VERTEX
  8
0
 10
28.9553
 20
40.0032
 30
0.0
 40
0.0499999
 41
0.0499999
  0
VERTEX
  8
0
 10
23.2406
 20
40.0032
 30
0.0
 40
0.0499999
 41
0.0499999
  0
VERTEX
  8
0
 10
23.2406
 20
45.7179
 30
0.0
 40
0.0499999
 41
0.0499999
  0
VERTEX
  8
0
 10
34.67
 20
45.7179
 30
0.0
 40
0.0499999
 41
0.0499999
  0
VERTEX
  8
0
 10
34.67
 20
40.0032
 30
0.0
 40
0.0499999
 41
0.0499999
  0
VERTEX
  8
0
 10
28.9553
 20
40.0032
 30
0.0
 40
0.0499999
 41
0.0499999
  0
SEQEND
 8
0
  0
POLYLINE
  8
0
 62
     5
 66
     1
 10
0
 20
0
 30
0.0
 70
     1
 40
0.141732
 41
0.141732
  0
VERTEX
  8
0
 10
51.8156
 20
40.0032
 30
0.0
 40
0.0499999
 41
0.0499999
  0
VERTEX
  8
0
 10
46.0996
 20
40.0032
 30
0.0
 40
0.0499999
 41
0.0499999
  0
VERTEX
  8
0
 10
46.0996
 20
45.7179
 30
0.0
 40
0.0499999
 41
0.0499999
  0
VERTEX
  8
0
 10
57.5303
 20
45.7179
 30
0.0
 40
0.0499999
 41
0.0499999
  0
VERTEX
  8
0
 10
57.5303
 20
40.0032
 30
0.0
 40
0.0499999
 41
0.0499999
  0
VERTEX
  8
0
 10
51.8156
 20
40.0032
 30
0.0
 40
0.0499999
 41
0.0499999
  0
SEQEND
 8
0
  0
POLYLINE
  8
0
 62
     5
 66
     1
 10
0
 20
0
 30
0.0
 70
     1
 40
0.141732
 41
0.141732
  0
VERTEX
  8
0
 10
74.6746
 20
40.0032
 30
0.0
 40
0.0499999
 41
0.0499999
  0
VERTEX
  8
0
 10
68.9599
 20
40.0032
 30
0.0
 40
0.0499999
 41
0.0499999
  0
VERTEX
  8
0
 10
68.9599
 20
45.7179
 30
0.0
 40
0.0499999
 41
0.0499999
  0
VERTEX
  8
0
 10
80.3906
 20
45.7179
 30
0.0
 40
0.0499999
 41
0.0499999
  0
VERTEX
  8
0
 10
80.3906
 20
40.0032
 30
0.0
 40
0.0499999
 41
0.0499999
  0
VERTEX
  8
0
 10
74.6746
 20
40.0032
 30
0.0
 40
0.0499999
 41
0.0499999
  0
SEQEND
 8
0
  0
POLYLINE
  8
0
 62
     5
 66
     1
 10
0
 20
0
 30
0.0
 70
     1
 40
0.141732
 41
0.141732
  0
VERTEX
  8
0
 10
97.5349
 20
40.0032
 30
0.0
 40
0.0499999
 41
0.0499999
  0
VERTEX
  8
0
 10
91.8199
 20
40.0032
 30
0.0
 40
0.0499999
 41
0.0499999
  0
VERTEX
  8
0
 10
91.8199
 20
45.7179
 30
0.0
 40
0.0499999
 41
0.0499999
  0
VERTEX
  8
0
 10
103.25
 20
45.7179
 30
0.0
 40
0.0499999
 41
0.0499999
  0
VERTEX
  8
0
 10
103.25
 20
40.0032
 30
0.0
 40
0.0499999
 41
0.0499999
  0
VERTEX
  8
0
 10
97.5349
 20
40.0032
 30
0.0
 40
0.0499999
 41
0.0499999
  0
SEQEND
 8
0
  0
POLYLINE
  8
0
 62
     5
 66
     1
 10
0
 20
0
 30
0.0
 70
     1
 40
0.141732
 41
0.141732
  0
VERTEX
  8
0
 10
120.395
 20
40.0032
 30
0.0
 40
0.0499999
 41
0.0499999
  0
VERTEX
  8
0
 10
114.68
 20
40.0032
 30
0.0
 40
0.0499999
 41
0.0499999
  0
VERTEX
  8
0
 10
114.68
 20
45.7179
 30
0.0
 40
0.0499999
 41
0.0499999
  0
VERTEX
  8
0
 10
126.11
 20
45.7179
 30
0.0
 40
0.0499999
 41
0.0499999
  0
VERTEX
  8
0
 10
126.11
 20
40.0032
 30
0.0
 40
0.0499999
 41
0.0499999
  0
VERTEX
  8
0
 10
120.395
 20
40.0032
 30
0.0
 40
0.0499999
 41
0.0499999
  0
SEQEND
 8
0
  0
POLYLINE
  8
0
 62
     5
 66
     1
 10
0
 20
0
 30
0.0
 70
     1
 40
0.141732
 41
0.141732
  0
VERTEX
  8
0
 10
143.255
 20
40.0032
 30
0.0
 40
0.0499999
 41
0.0499999
  0
VERTEX
  8
0
 10
137.541
 20
40.0032
 30
0.0
 40
0.0499999
 41
0.0499999
  0
VERTEX
  8
0
 10
137.541
 20
45.7179
 30
0.0
 40
0.0499999
 41
0.0499999
  0
VERTEX
  8
0
 10
148.97
 20
45.7179
 30
0.0
 40
0.0499999
 41
0.0499999
  0
VERTEX
  8
0
 10
148.97
 20
40.0032
 30
0.0
 40
0.0499999
 41
0.0499999
  0
VERTEX
  8
0
 10
143.255
 20
40.0032
 30
0.0
 40
0.0499999
 41
0.0499999
  0
SEQEND
 8
0
  0
POLYLINE
  8
0
 62
     5
 66
     1
 10
0
 20
0
 30
0.0
 70
     1
 40
0.141732
 41
0.141732
  0
VERTEX
  8
0
 10
166.116
 20
40.0032
 30
0.0
 40
0.0499999
 41
0.0499999
  0
VERTEX
  8
0
 10
160.4
 20
40.0032
 30
0.0
 40
0.0499999
 41
0.0499999
  0
VERTEX
  8
0
 10
160.4
 20
45.7179
 30
0.0
 40
0.0499999
 41
0.0499999
  0
VERTEX
  8
0
 10
171.83
 20
45.7179
 30
0.0
 40
0.0499999
 41
0.0499999
  0
VERTEX
  8
0
 10
171.83
 20
40.0032
 30
0.0
 40
0.0499999
 41
0.0499999
  0
VERTEX
  8
0
 10
166.116
 20
40.0032
 30
0.0
 40
0.0499999
 41
0.0499999
  0
SEQEND
 8
0
  0
POLYLINE
  8
0
 62
     5
 66
     1
 10
0
 20
0
 30
0.0
 70
     1
 40
0.141732
 41
0.141732
  0
VERTEX
  8
0
 10
188.975
 20
40.0032
 30
0.0
 40
0.0499999
 41
0.0499999
  0
VERTEX
  8
0
 10
183.26
 20
40.0032
 30
0.0
 40
0.0499999
 41
0.0499999
  0
VERTEX
  8
0
 10
183.26
 20
45.7179
 30
0.0
 40
0.0499999
 41
0.0499999
  0
VERTEX
  8
0
 10
194.691
 20
45.7179
 30
0.0
 40
0.0499999
 41
0.0499999
  0
VERTEX
  8
0
 10
194.691
 20
40.0032
 30
0.0
 40
0.0499999
 41
0.0499999
  0
VERTEX
  8
0
 10
188.975
 20
40.0032
 30
0.0
 40
0.0499999
 41
0.0499999
  0
SEQEND
 8
0
  0
POLYLINE
  8
0
 62
     5
 66
     1
 10
0
 20
0
 30
0.0
 70
     1
 40
0.141732
 41
0.141732
  0
VERTEX
  8
0
 10
211.835
 20
40.0032
 30
0.0
 40
0.0499999
 41
0.0499999
  0
VERTEX
  8
0
 10
206.12
 20
40.0032
 30
0.0
 40
0.0499999
 41
0.0499999
  0
VERTEX
  8
0
 10
206.12
 20
45.7179
 30
0.0
 40
0.0499999
 41
0.0499999
  0
VERTEX
  8
0
 10
217.55
 20
45.7179
 30
0.0
 40
0.0499999
 41
0.0499999
  0
VERTEX
  8
0
 10
217.55
 20
40.0032
 30
0.0
 40
0.0499999
 41
0.0499999
  0
VERTEX
  8
0
 10
211.835
 20
40.0032
 30
0.0
 40
0.0499999
 41
0.0499999
  0
SEQEND
 8
0
  0
POLYLINE
  8
0
 62
     5
 66
     1
 10
0
 20
0
 30
0.0
 70
     1
 40
0.141732
 41
0.141732
  0
VERTEX
  8
0
 10
234.695
 20
40.0032
 30
0.0
 40
0.0499999
 41
0.0499999
  0
VERTEX
  8
0
 10
228.98
 20
40.0032
 30
0.0
 40
0.0499999
 41
0.0499999
  0
VERTEX
  8
0
 10
228.98
 20
45.7179
 30
0.0
 40
0.0499999
 41
0.0499999
  0
VERTEX
  8
0
 10
240.41
 20
45.7179
 30
0.0
 40
0.0499999
 41
0.0499999
  0
VERTEX
  8
0
 10
240.41
 20
40.0032
 30
0.0
 40
0.0499999
 41
0.0499999
  0
VERTEX
  8
0
 10
234.695
 20
40.0032
 30
0.0
 40
0.0499999
 41
0.0499999
  0
SEQEND
 8
0
  0
POLYLINE
  8
0
 62
     5
 66
     1
 10
0
 20
0
 30
0.0
 70
     1
 40
0.141732
 41
0.141732
  0
VERTEX
  8
0
 10
257.555
 20
40.0032
 30
0.0
 40
0.0499999
 41
0.0499999
  0
VERTEX
  8
0
 10
251.841
 20
40.0032
 30
0.0
 40
0.0499999
 41
0.0499999
  0
VERTEX
  8
0
 10
251.841
 20
45.7179
 30
0.0
 40
0.0499999
 41
0.0499999
  0
VERTEX
  8
0
 10
263.27
 20
45.7179
 30
0.0
 40
0.0499999
 41
0.0499999
  0
VERTEX
  8
0
 10
263.27
 20
40.0032
 30
0.0
 40
0.0499999
 41
0.0499999
  0
VERTEX
  8
0
 10
257.555
 20
40.0032
 30
0.0
 40
0.0499999
 41
0.0499999
  0
SEQEND
 8
0
  0
POLYLINE
  8
0
 62
     5
 66
     1
 10
0
 20
0
 30
0.0
 70
     1
 40
0.141732
 41
0.141732
  0
VERTEX
  8
0
 10
280.416
 20
40.0032
 30
0.0
 40
0.0499999
 41
0.0499999
  0
VERTEX
  8
0
 10
274.7
 20
40.0032
 30
0.0
 40
0.0499999
 41
0.0499999
  0
VERTEX
  8
0
 10
274.7
 20
45.7179
 30
0.0
 40
0.0499999
 41
0.0499999
  0
VERTEX
  8
0
 10
286.13
 20
45.7179
 30
0.0
 40
0.0499999
 41
0.0499999
  0
VERTEX
  8
0
 10
286.13
 20
40.0032
 30
0.0
 40
0.0499999
 41
0.0499999
  0
VERTEX
  8
0
 10
280.416
 20
40.0032
 30
0.0
 40
0.0499999
 41
0.0499999
  0
SEQEND
 8
0
  0
POLYLINE
  8
0
 62
     5
 66
     1
 10
0
 20
0
 30
0.0
 70
     1
 40
0.141732
 41
0.141732
  0
VERTEX
  8
0
 10
303.275
 20
40.0032
 30
0.0
 40
0.0499999
 41
0.0499999
  0
VERTEX
  8
0
 10
297.56
 20
40.0032
 30
0.0
 40
0.0499999
 41
0.0499999
  0
VERTEX
  8
0
 10
297.56
 20
45.7179
 30
0.0
 40
0.0499999
 41
0.0499999
  0
VERTEX
  8
0
 10
308.991
 20
45.7179
 30
0.0
 40
0.0499999
 41
0.0499999
  0
VERTEX
  8
0
 10
308.991
 20
40.0032
 30
0.0
 40
0.0499999
 41
0.0499999
  0
VERTEX
  8
0
 10
303.275
 20
40.0032
 30
0.0
 40
0.0499999
 41
0.0499999
  0
SEQEND
 8
0
  0
TEXT
  8
0
 62
     1
 10
158.221
 20
101.341
 30
0.0
 40
4.0005
  1
Left Side
 50
0
  0
POLYLINE
  8
0
 62
     0
 66
     1
 10
0
 20
0
 30
0.0
 70
     1
 40
0.141732
 41
0.141732
  0
VERTEX
  8
0
 10
16.1148
 20
22.8575
 30
0.0
 40
0.0499999
 41
0.0499999
  0
VERTEX
  8
0
 10
38.9749
 20
22.8575
 30
0.0
 40
0.0499999
 41
0.0499999
  0
VERTEX
  8
0
 10
39.3485
 20
22.8575
 30
0.0
 40
0.0499999
 41
0.0499999
  0
VERTEX
  8
0
 10
40.4689
 20
22.9567
 30
0.0
 40
0.0499999
 41
0.0499999
  0
VERTEX
  8
0
 10
41.9322
 20
23.2475
 30
0.0
 40
0.0499999
 41
0.0499999
  0
VERTEX
  8
0
 10
43.3447
 20
23.7271
 30
0.0
 40
0.0499999
 41
0.0499999
  0
VERTEX
  8
0
 10
44.366
 20
24.2025
 30
0.0
 40
0.0499999
 41
0.0499999
  0
VERTEX
  8
0
 10
44.6899
 20
24.3885
 30
0.0
 40
0.0499999
 41
0.0499999
  0
VERTEX
  8
0
 10
44.8511
 20
24.4822
 30
0.0
 40
0.0499999
 41
0.0499999
  0
VERTEX
  8
0
 10
45.3263
 20
24.7854
 30
0.0
 40
0.0499999
 41
0.0499999
  0
VERTEX
  8
0
 10
45.9341
 20
25.2222
 30
0.0
 40
0.0499999
 41
0.0499999
  0
VERTEX
  8
0
 10
46.5116
 20
25.6963
 30
0.0
 40
0.0499999
 41
0.0499999
  0
VERTEX
  8
0
 10
47.056
 20
26.2062
 30
0.0
 40
0.0499999
 41
0.0499999
  0
VERTEX
  8
0
 10
47.5657
 20
26.7505
 30
0.0
 40
0.0499999
 41
0.0499999
  0
VERTEX
  8
0
 10
48.0399
 20
27.3279
 30
0.0
 40
0.0499999
 41
0.0499999
  0
VERTEX
  8
0
 10
48.4766
 20
27.9356
 30
0.0
 40
0.0499999
 41
0.0499999
  0
VERTEX
  8
0
 10
48.7796
 20
28.411
 30
0.0
 40
0.0499999
 41
0.0499999
  0
VERTEX
  8
0
 10
48.8735
 20
28.5722
 30
0.0
 40
0.0499999
 41
0.0499999
  0
VERTEX
  8
0
 10
48.9673
 20
28.7348
 30
0.0
 40
0.0499999
 41
0.0499999
  0
VERTEX
  8
0
 10
49.2689
 20
29.2103
 30
0.0
 40
0.0499999
 41
0.0499999
  0
VERTEX
  8
0
 10
49.7057
 20
29.818
 30
0.0
 40
0.0499999
 41
0.0499999
  0
VERTEX
  8
0
 10
50.1798
 20
30.3954
 30
0.0
 40
0.0499999
 41
0.0499999
  0
VERTEX
  8
0
 10
50.6899
 20
30.9397
 30
0.0
 40
0.0499999
 41
0.0499999
  0
VERTEX
  8
0
 10
51.2339
 20
31.4496
 30
0.0
 40
0.0499999
 41
0.0499999
  0
VERTEX
  8
0
 10
51.8114
 20
31.9236
 30
0.0
 40
0.0499999
 41
0.0499999
  0
VERTEX
  8
0
 10
52.4192
 20
32.3605
 30
0.0
 40
0.0499999
 41
0.0499999
  0
VERTEX
  8
0
 10
52.8948
 20
32.6622
 30
0.0
 40
0.0499999
 41
0.0499999
  0
VERTEX
  8
0
 10
53.0571
 20
32.756
 30
0.0
 40
0.0499999
 41
0.0499999
  0
VERTEX
  8
0
 10
53.3799
 20
32.9434
 30
0.0
 40
0.0499999
 41
0.0499999
  0
VERTEX
  8
0
 10
54.4008
 20
33.4188
 30
0.0
 40
0.0499999
 41
0.0499999
  0
VERTEX
  8
0
 10
55.8133
 20
33.8983
 30
0.0
 40
0.0499999
 41
0.0499999
  0
VERTEX
  8
0
 10
57.2766
 20
34.1891
 30
0.0
 40
0.0499999
 41
0.0499999
  0
VERTEX
  8
0
 10
58.3971
 20
34.287
 30
0.0
 40
0.0499999
 41
0.0499999
  0
VERTEX
  8
0
 10
58.7721
 20
34.287
 30
0.0
 40
0.0499999
 41
0.0499999
  0
VERTEX
  8
0
 10
273.458
 20
34.287
 30
0.0
 40
0.0499999
 41
0.0499999
  0
VERTEX
  8
0
 10
273.831
 20
34.287
 30
0.0
 40
0.0499999
 41
0.0499999
  0
VERTEX
  8
0
 10
274.952
 20
34.1891
 30
0.0
 40
0.0499999
 41
0.0499999
  0
VERTEX
  8
0
 10
276.415
 20
33.8983
 30
0.0
 40
0.0499999
 41
0.0499999
  0
VERTEX
  8
0
 10
277.828
 20
33.4188
 30
0.0
 40
0.0499999
 41
0.0499999
  0
VERTEX
  8
0
 10
278.849
 20
32.9434
 30
0.0
 40
0.0499999
 41
0.0499999
  0
VERTEX
  8
0
 10
279.172
 20
32.756
 30
0.0
 40
0.0499999
 41
0.0499999
  0
VERTEX
  8
0
 10
279.334
 20
32.6636
 30
0.0
 40
0.0499999
 41
0.0499999
  0
VERTEX
  8
0
 10
279.809
 20
32.3605
 30
0.0
 40
0.0499999
 41
0.0499999
  0
VERTEX
  8
0
 10
280.417
 20
31.9236
 30
0.0
 40
0.0499999
 41
0.0499999
  0
VERTEX
  8
0
 10
280.995
 20
31.4496
 30
0.0
 40
0.0499999
 41
0.0499999
  0
VERTEX
  8
0
 10
281.539
 20
30.9397
 30
0.0
 40
0.0499999
 41
0.0499999
  0
VERTEX
  8
0
 10
282.049
 20
30.3954
 30
0.0
 40
0.0499999
 41
0.0499999
  0
VERTEX
  8
0
 10
282.523
 20
29.818
 30
0.0
 40
0.0499999
 41
0.0499999
  0
VERTEX
  8
0
 10
282.96
 20
29.2103
 30
0.0
 40
0.0499999
 41
0.0499999
  0
VERTEX
  8
0
 10
283.263
 20
28.7348
 30
0.0
 40
0.0499999
 41
0.0499999
  0
VERTEX
  8
0
 10
283.356
 20
28.5722
 30
0.0
 40
0.0499999
 41
0.0499999
  0
VERTEX
  8
0
 10
283.449
 20
28.411
 30
0.0
 40
0.0499999
 41
0.0499999
  0
VERTEX
  8
0
 10
283.752
 20
27.9356
 30
0.0
 40
0.0499999
 41
0.0499999
  0
VERTEX
  8
0
 10
284.189
 20
27.3279
 30
0.0
 40
0.0499999
 41
0.0499999
  0
VERTEX
  8
0
 10
284.663
 20
26.7505
 30
0.0
 40
0.0499999
 41
0.0499999
  0
VERTEX
  8
0
 10
285.172
 20
26.2062
 30
0.0
 40
0.0499999
 41
0.0499999
  0
VERTEX
  8
0
 10
285.717
 20
25.6963
 30
0.0
 40
0.0499999
 41
0.0499999
  0
VERTEX
  8
0
 10
286.294
 20
25.2222
 30
0.0
 40
0.0499999
 41
0.0499999
  0
VERTEX
  8
0
 10
286.902
 20
24.7854
 30
0.0
 40
0.0499999
 41
0.0499999
  0
VERTEX
  8
0
 10
287.377
 20
24.4822
 30
0.0
 40
0.0499999
 41
0.0499999
  0
VERTEX
  8
0
 10
287.54
 20
24.3885
 30
0.0
 40
0.0499999
 41
0.0499999
  0
VERTEX
  8
0
 10
287.862
 20
24.2025
 30
0.0
 40
0.0499999
 41
0.0499999
  0
VERTEX
  8
0
 10
288.884
 20
23.7271
 30
0.0
 40
0.0499999
 41
0.0499999
  0
VERTEX
  8
0
 10
290.296
 20
23.2475
 30
0.0
 40
0.0499999
 41
0.0499999
  0
VERTEX
  8
0
 10
291.76
 20
22.9567
 30
0.0
 40
0.0499999
 41
0.0499999
  0
VERTEX
  8
0
 10
292.88
 20
22.8575
 30
0.0
 40
0.0499999
 41
0.0499999
  0
VERTEX
  8
0
 10
293.255
 20
22.8575
 30
0.0
 40
0.0499999
 41
0.0499999
  0
VERTEX
  8
0
 10
316.115
 20
22.8575
 30
0.0
 40
0.0499999
 41
0.0499999
  0
VERTEX
  8
0
 10
316.115
 20
33.6917
 30
0.0
 40
0.0499999
 41
0.0499999
  0
VERTEX
  8
0
 10
321.83
 20
33.6917
 30
0.0
 40
0.0499999
 41
0.0499999
  0
VERTEX
  8
0
 10
321.83
 20
45.1224
 30
0.0
 40
0.0499999
 41
0.0499999
  0
VERTEX
  8
0
 10
316.115
 20
45.1224
 30
0.0
 40
0.0499999
 41
0.0499999
  0
VERTEX
  8
0
 10
316.115
 20
56.552
 30
0.0
 40
0.0499999
 41
0.0499999
  0
VERTEX
  8
0
 10
321.83
 20
56.552
 30
0.0
 40
0.0499999
 41
0.0499999
  0
VERTEX
  8
0
 10
321.83
 20
67.9813
 30
0.0
 40
0.0499999
 41
0.0499999
  0
VERTEX
  8
0
 10
316.115
 20
67.9813
 30
0.0
 40
0.0499999
 41
0.0499999
  0
VERTEX
  8
0
 10
316.115
 20
79.412
 30
0.0
 40
0.0499999
 41
0.0499999
  0
VERTEX
  8
0
 10
321.83
 20
79.412
 30
0.0
 40
0.0499999
 41
0.0499999
  0
VERTEX
  8
0
 10
321.83
 20
90.8417
 30
0.0
 40
0.0499999
 41
0.0499999
  0
VERTEX
  8
0
 10
316.115
 20
90.8417
 30
0.0
 40
0.0499999
 41
0.0499999
  0
VERTEX
  8
0
 10
316.115
 20
101.677
 30
0.0
 40
0.0499999
 41
0.0499999
  0
VERTEX
  8
0
 10
316.115
 20
105.718
 30
0.0
 40
0.0499999
 41
0.0499999
  0
VERTEX
  8
0
 10
309.403
 20
112.43
 30
0.0
 40
0.0499999
 41
0.0499999
  0
VERTEX
  8
0
 10
313.444
 20
116.47
 30
0.0
 40
0.0499999
 41
0.0499999
  0
VERTEX
  8
0
 10
305.362
 20
124.553
 30
0.0
 40
0.0499999
 41
0.0499999
  0
VERTEX
  8
0
 10
301.321
 20
120.512
 30
0.0
 40
0.0499999
 41
0.0499999
  0
VERTEX
  8
0
 10
293.238
 20
128.595
 30
0.0
 40
0.0499999
 41
0.0499999
  0
VERTEX
  8
0
 10
297.28
 20
132.635
 30
0.0
 40
0.0499999
 41
0.0499999
  0
VERTEX
  8
0
 10
289.198
 20
140.717
 30
0.0
 40
0.0499999
 41
0.0499999
  0
VERTEX
  8
0
 10
285.156
 20
136.677
 30
0.0
 40
0.0499999
 41
0.0499999
  0
VERTEX
  8
0
 10
277.074
 20
144.759
 30
0.0
 40
0.0499999
 41
0.0499999
  0
VERTEX
  8
0
 10
281.114
 20
148.801
 30
0.0
 40
0.0499999
 41
0.0499999
  0
VERTEX
  8
0
 10
273.032
 20
156.881
 30
0.0
 40
0.0499999
 41
0.0499999
  0
VERTEX
  8
0
 10
268.992
 20
152.841
 30
0.0
 40
0.0499999
 41
0.0499999
  0
VERTEX
  8
0
 10
260.91
 20
160.923
 30
0.0
 40
0.0499999
 41
0.0499999
  0
VERTEX
  8
0
 10
264.951
 20
164.963
 30
0.0
 40
0.0499999
 41
0.0499999
  0
VERTEX
  8
0
 10
256.869
 20
173.046
 30
0.0
 40
0.0499999
 41
0.0499999
  0
VERTEX
  8
0
 10
252.827
 20
169.005
 30
0.0
 40
0.0499999
 41
0.0499999
  0
VERTEX
  8
0
 10
246.115
 20
175.718
 30
0.0
 40
0.0499999
 41
0.0499999
  0
VERTEX
  8
0
 10
242.074
 20
175.718
 30
0.0
 40
0.0499999
 41
0.0499999
  0
VERTEX
  8
0
 10
237.68
 20
175.718
 30
0.0
 40
0.0499999
 41
0.0499999
  0
VERTEX
  8
0
 10
237.68
 20
181.433
 30
0.0
 40
0.0499999
 41
0.0499999
  0
VERTEX
  8
0
 10
226.249
 20
181.433
 30
0.0
 40
0.0499999
 41
0.0499999
  0
VERTEX
  8
0
 10
226.249
 20
175.718
 30
0.0
 40
0.0499999
 41
0.0499999
  0
VERTEX
  8
0
 10
214.82
 20
175.718
 30
0.0
 40
0.0499999
 41
0.0499999
  0
VERTEX
  8
0
 10
214.82
 20
181.433
 30
0.0
 40
0.0499999
 41
0.0499999
  0
VERTEX
  8
0
 10
203.389
 20
181.433
 30
0.0
 40
0.0499999
 41
0.0499999
  0
VERTEX
  8
0
 10
203.389
 20
175.718
 30
0.0
 40
0.0499999
 41
0.0499999
  0
VERTEX
  8
0
 10
191.959
 20
175.718
 30
0.0
 40
0.0499999
 41
0.0499999
  0
VERTEX
  8
0
 10
191.959
 20
181.433
 30
0.0
 40
0.0499999
 41
0.0499999
  0
VERTEX
  8
0
 10
180.53
 20
181.433
 30
0.0
 40
0.0499999
 41
0.0499999
  0
VERTEX
  8
0
 10
180.53
 20
175.718
 30
0.0
 40
0.0499999
 41
0.0499999
  0
VERTEX
  8
0
 10
169.099
 20
175.718
 30
0.0
 40
0.0499999
 41
0.0499999
  0
VERTEX
  8
0
 10
169.099
 20
181.433
 30
0.0
 40
0.0499999
 41
0.0499999
  0
VERTEX
  8
0
 10
157.67
 20
181.433
 30
0.0
 40
0.0499999
 41
0.0499999
  0
VERTEX
  8
0
 10
157.67
 20
175.718
 30
0.0
 40
0.0499999
 41
0.0499999
  0
VERTEX
  8
0
 10
146.239
 20
175.718
 30
0.0
 40
0.0499999
 41
0.0499999
  0
VERTEX
  8
0
 10
146.239
 20
181.433
 30
0.0
 40
0.0499999
 41
0.0499999
  0
VERTEX
  8
0
 10
134.809
 20
181.433
 30
0.0
 40
0.0499999
 41
0.0499999
  0
VERTEX
  8
0
 10
134.809
 20
175.718
 30
0.0
 40
0.0499999
 41
0.0499999
  0
VERTEX
  8
0
 10
123.38
 20
175.718
 30
0.0
 40
0.0499999
 41
0.0499999
  0
VERTEX
  8
0
 10
123.38
 20
181.433
 30
0.0
 40
0.0499999
 41
0.0499999
  0
VERTEX
  8
0
 10
111.949
 20
181.433
 30
0.0
 40
0.0499999
 41
0.0499999
  0
VERTEX
  8
0
 10
111.949
 20
175.718
 30
0.0
 40
0.0499999
 41
0.0499999
  0
VERTEX
  8
0
 10
100.52
 20
175.718
 30
0.0
 40
0.0499999
 41
0.0499999
  0
VERTEX
  8
0
 10
100.52
 20
181.433
 30
0.0
 40
0.0499999
 41
0.0499999
  0
VERTEX
  8
0
 10
89.0887
 20
181.433
 30
0.0
 40
0.0499999
 41
0.0499999
  0
VERTEX
  8
0
 10
89.0887
 20
175.718
 30
0.0
 40
0.0499999
 41
0.0499999
  0
VERTEX
  8
0
 10
77.6594
 20
175.718
 30
0.0
 40
0.0499999
 41
0.0499999
  0
VERTEX
  8
0
 10
77.6594
 20
181.433
 30
0.0
 40
0.0499999
 41
0.0499999
  0
VERTEX
  8
0
 10
66.2298
 20
181.433
 30
0.0
 40
0.0499999
 41
0.0499999
  0
VERTEX
  8
0
 10
66.2298
 20
175.718
 30
0.0
 40
0.0499999
 41
0.0499999
  0
VERTEX
  8
0
 10
54.7991
 20
175.718
 30
0.0
 40
0.0499999
 41
0.0499999
  0
VERTEX
  8
0
 10
54.7991
 20
181.433
 30
0.0
 40
0.0499999
 41
0.0499999
  0
VERTEX
  8
0
 10
43.3698
 20
181.433
 30
0.0
 40
0.0499999
 41
0.0499999
  0
VERTEX
  8
0
 10
43.3698
 20
175.718
 30
0.0
 40
0.0499999
 41
0.0499999
  0
VERTEX
  8
0
 10
31.9388
 20
175.718
 30
0.0
 40
0.0499999
 41
0.0499999
  0
VERTEX
  8
0
 10
31.9388
 20
181.433
 30
0.0
 40
0.0499999
 41
0.0499999
  0
VERTEX
  8
0
 10
20.5093
 20
181.433
 30
0.0
 40
0.0499999
 41
0.0499999
  0
VERTEX
  8
0
 10
20.5093
 20
175.718
 30
0.0
 40
0.0499999
 41
0.0499999
  0
VERTEX
  8
0
 10
16.1148
 20
175.718
 30
0.0
 40
0.0499999
 41
0.0499999
  0
VERTEX
  8
0
 10
16.1148
 20
162.153
 30
0.0
 40
0.0499999
 41
0.0499999
  0
VERTEX
  8
0
 10
10.4001
 20
162.153
 30
0.0
 40
0.0499999
 41
0.0499999
  0
VERTEX
  8
0
 10
10.4001
 20
150.723
 30
0.0
 40
0.0499999
 41
0.0499999
  0
VERTEX
  8
0
 10
16.1148
 20
150.723
 30
0.0
 40
0.0499999
 41
0.0499999
  0
VERTEX
  8
0
 10
16.1148
 20
139.292
 30
0.0
 40
0.0499999
 41
0.0499999
  0
VERTEX
  8
0
 10
10.4001
 20
139.292
 30
0.0
 40
0.0499999
 41
0.0499999
  0
VERTEX
  8
0
 10
10.4001
 20
127.863
 30
0.0
 40
0.0499999
 41
0.0499999
  0
VERTEX
  8
0
 10
16.1148
 20
127.863
 30
0.0
 40
0.0499999
 41
0.0499999
  0
VERTEX
  8
0
 10
16.1148
 20
116.433
 30
0.0
 40
0.0499999
 41
0.0499999
  0
VERTEX
  8
0
 10
10.4001
 20
116.433
 30
0.0
 40
0.0499999
 41
0.0499999
  0
VERTEX
  8
0
 10
10.4001
 20
105.003
 30
0.0
 40
0.0499999
 41
0.0499999
  0
VERTEX
  8
0
 10
16.1148
 20
105.003
 30
0.0
 40
0.0499999
 41
0.0499999
  0
VERTEX
  8
0
 10
16.1148
 20
93.5729
 30
0.0
 40
0.0499999
 41
0.0499999
  0
VERTEX
  8
0
 10
10.4001
 20
93.5729
 30
0.0
 40
0.0499999
 41
0.0499999
  0
VERTEX
  8
0
 10
10.4001
 20
82.1422
 30
0.0
 40
0.0499999
 41
0.0499999
  0
VERTEX
  8
0
 10
16.1148
 20
82.1422
 30
0.0
 40
0.0499999
 41
0.0499999
  0
VERTEX
  8
0
 10
16.1148
 20
70.7125
 30
0.0
 40
0.0499999
 41
0.0499999
  0
VERTEX
  8
0
 10
10.4001
 20
70.7125
 30
0.0
 40
0.0499999
 41
0.0499999
  0
VERTEX
  8
0
 10
10.4001
 20
59.2832
 30
0.0
 40
0.0499999
 41
0.0499999
  0
VERTEX
  8
0
 10
16.1148
 20
59.2832
 30
0.0
 40
0.0499999
 41
0.0499999
  0
VERTEX
  8
0
 10
16.1148
 20
47.8525
 30
0.0
 40
0.0499999
 41
0.0499999
  0
VERTEX
  8
0
 10
10.4001
 20
47.8525
 30
0.0
 40
0.0499999
 41
0.0499999
  0
VERTEX
  8
0
 10
10.4001
 20
36.4229
 30
0.0
 40
0.0499999
 41
0.0499999
  0
VERTEX
  8
0
 10
16.1148
 20
36.4229
 30
0.0
 40
0.0499999
 41
0.0499999
  0
VERTEX
  8
0
 10
16.1148
 20
22.8575
 30
0.0
 40
0.0499999
 41
0.0499999
  0
SEQEND
 8
0
  0
POLYLINE
  8
0
 62
     5
 66
     1
 10
0
 20
0
 30
0.0
 70
     1
 40
0.141732
 41
0.141732
  0
VERTEX
  8
0
 10
343.243
 20
40.0032
 30
0.0
 40
0.0499999
 41
0.0499999
  0
VERTEX
  8
0
 10
337.527
 20
40.0032
 30
0.0
 40
0.0499999
 41
0.0499999
  0
VERTEX
  8
0
 10
337.527
 20
45.7179
 30
0.0
 40
0.0499999
 41
0.0499999
  0
VERTEX
  8
0
 10
348.958
 20
45.7179
 30
0.0
 40
0.0499999
 41
0.0499999
  0
VERTEX
  8
0
 10
348.958
 20
40.0032
 30
0.0
 40
0.0499999
 41
0.0499999
  0
VERTEX
  8
0
 10
343.243
 20
40.0032
 30
0.0
 40
0.0499999
 41
0.0499999
  0
SEQEND
 8
0
  0
POLYLINE
  8
0
 62
     5
 66
     1
 10
0
 20
0
 30
0.0
 70
     1
 40
0.141732
 41
0.141732
  0
VERTEX
  8
0
 10
366.102
 20
40.0032
 30
0.0
 40
0.0499999
 41
0.0499999
  0
VERTEX
  8
0
 10
360.387
 20
40.0032
 30
0.0
 40
0.0499999
 41
0.0499999
  0
VERTEX
  8
0
 10
360.387
 20
45.7179
 30
0.0
 40
0.0499999
 41
0.0499999
  0
VERTEX
  8
0
 10
371.817
 20
45.7179
 30
0.0
 40
0.0499999
 41
0.0499999
  0
VERTEX
  8
0
 10
371.817
 20
40.0032
 30
0.0
 40
0.0499999
 41
0.0499999
  0
VERTEX
  8
0
 10
366.102
 20
40.0032
 30
0.0
 40
0.0499999
 41
0.0499999
  0
SEQEND
 8
0
  0
POLYLINE
  8
0
 62
     5
 66
     1
 10
0
 20
0
 30
0.0
 70
     1
 40
0.141732
 41
0.141732
  0
VERTEX
  8
0
 10
388.962
 20
40.0032
 30
0.0
 40
0.0499999
 41
0.0499999
  0
VERTEX
  8
0
 10
383.247
 20
40.0032
 30
0.0
 40
0.0499999
 41
0.0499999
  0
VERTEX
  8
0
 10
383.247
 20
45.7179
 30
0.0
 40
0.0499999
 41
0.0499999
  0
VERTEX
  8
0
 10
394.677
 20
45.7179
 30
0.0
 40
0.0499999
 41
0.0499999
  0
VERTEX
  8
0
 10
394.677
 20
40.0032
 30
0.0
 40
0.0499999
 41
0.0499999
  0
VERTEX
  8
0
 10
388.962
 20
40.0032
 30
0.0
 40
0.0499999
 41
0.0499999
  0
SEQEND
 8
0
  0
POLYLINE
  8
0
 62
     5
 66
     1
 10
0
 20
0
 30
0.0
 70
     1
 40
0.141732
 41
0.141732
  0
VERTEX
  8
0
 10
411.822
 20
40.0032
 30
0.0
 40
0.0499999
 41
0.0499999
  0
VERTEX
  8
0
 10
406.107
 20
40.0032
 30
0.0
 40
0.0499999
 41
0.0499999
  0
VERTEX
  8
0
 10
406.107
 20
45.7179
 30
0.0
 40
0.0499999
 41
0.0499999
  0
VERTEX
  8
0
 10
417.537
 20
45.7179
 30
0.0
 40
0.0499999
 41
0.0499999
  0
VERTEX
  8
0
 10
417.537
 20
40.0032
 30
0.0
 40
0.0499999
 41
0.0499999
  0
VERTEX
  8
0
 10
411.822
 20
40.0032
 30
0.0
 40
0.0499999
 41
0.0499999
  0
SEQEND
 8
0
  0
POLYLINE
  8
0
 62
     5
 66
     1
 10
0
 20
0
 30
0.0
 70
     1
 40
0.141732
 41
0.141732
  0
VERTEX
  8
0
 10
434.682
 20
40.0032
 30
0.0
 40
0.0499999
 41
0.0499999
  0
VERTEX
  8
0
 10
428.967
 20
40.0032
 30
0.0
 40
0.0499999
 41
0.0499999
  0
VERTEX
  8
0
 10
428.967
 20
45.7179
 30
0.0
 40
0.0499999
 41
0.0499999
  0
VERTEX
  8
0
 10
440.397
 20
45.7179
 30
0.0
 40
0.0499999
 41
0.0499999
  0
VERTEX
  8
0
 10
440.397
 20
40.0032
 30
0.0
 40
0.0499999
 41
0.0499999
  0
VERTEX
  8
0
 10
434.682
 20
40.0032
 30
0.0
 40
0.0499999
 41
0.0499999
  0
SEQEND
 8
0
  0
POLYLINE
  8
0
 62
     5
 66
     1
 10
0
 20
0
 30
0.0
 70
     1
 40
0.141732
 41
0.141732
  0
VERTEX
  8
0
 10
457.542
 20
40.0032
 30
0.0
 40
0.0499999
 41
0.0499999
  0
VERTEX
  8
0
 10
451.827
 20
40.0032
 30
0.0
 40
0.0499999
 41
0.0499999
  0
VERTEX
  8
0
 10
451.827
 20
45.7179
 30
0.0
 40
0.0499999
 41
0.0499999
  0
VERTEX
  8
0
 10
463.257
 20
45.7179
 30
0.0
 40
0.0499999
 41
0.0499999
  0
VERTEX
  8
0
 10
463.257
 20
40.0032
 30
0.0
 40
0.0499999
 41
0.0499999
  0
VERTEX
  8
0
 10
457.542
 20
40.0032
 30
0.0
 40
0.0499999
 41
0.0499999
  0
SEQEND
 8
0
  0
POLYLINE
  8
0
 62
     5
 66
     1
 10
0
 20
0
 30
0.0
 70
     1
 40
0.141732
 41
0.141732
  0
VERTEX
  8
0
 10
480.402
 20
40.0032
 30
0.0
 40
0.0499999
 41
0.0499999
  0
VERTEX
  8
0
 10
474.687
 20
40.0032
 30
0.0
 40
0.0499999
 41
0.0499999
  0
VERTEX
  8
0
 10
474.687
 20
45.7179
 30
0.0
 40
0.0499999
 41
0.0499999
  0
VERTEX
  8
0
 10
486.117
 20
45.7179
 30
0.0
 40
0.0499999
 41
0.0499999
  0
VERTEX
  8
0
 10
486.117
 20
40.0032
 30
0.0
 40
0.0499999
 41
0.0499999
  0
VERTEX
  8
0
 10
480.402
 20
40.0032
 30
0.0
 40
0.0499999
 41
0.0499999
  0
SEQEND
 8
0
  0
POLYLINE
  8
0
 62
     5
 66
     1
 10
0
 20
0
 30
0.0
 70
     1
 40
0.141732
 41
0.141732
  0
VERTEX
  8
0
 10
503.262
 20
40.0032
 30
0.0
 40
0.0499999
 41
0.0499999
  0
VERTEX
  8
0
 10
497.547
 20
40.0032
 30
0.0
 40
0.0499999
 41
0.0499999
  0
VERTEX
  8
0
 10
497.547
 20
45.7179
 30
0.0
 40
0.0499999
 41
0.0499999
  0
VERTEX
  8
0
 10
508.977
 20
45.7179
 30
0.0
 40
0.0499999
 41
0.0499999
  0
VERTEX
  8
0
 10
508.977
 20
40.0032
 30
0.0
 40
0.0499999
 41
0.0499999
  0
VERTEX
  8
0
 10
503.262
 20
40.0032
 30
0.0
 40
0.0499999
 41
0.0499999
  0
SEQEND
 8
0
  0
POLYLINE
  8
0
 62
     5
 66
     1
 10
0
 20
0
 30
0.0
 70
     1
 40
0.141732
 41
0.141732
  0
VERTEX
  8
0
 10
526.122
 20
40.0032
 30
0.0
 40
0.0499999
 41
0.0499999
  0
VERTEX
  8
0
 10
520.407
 20
40.0032
 30
0.0
 40
0.0499999
 41
0.0499999
  0
VERTEX
  8
0
 10
520.407
 20
45.7179
 30
0.0
 40
0.0499999
 41
0.0499999
  0
VERTEX
  8
0
 10
531.837
 20
45.7179
 30
0.0
 40
0.0499999
 41
0.0499999
  0
VERTEX
  8
0
 10
531.837
 20
40.0032
 30
0.0
 40
0.0499999
 41
0.0499999
  0
VERTEX
  8
0
 10
526.122
 20
40.0032
 30
0.0
 40
0.0499999
 41
0.0499999
  0
SEQEND
 8
0
  0
POLYLINE
  8
0
 62
     5
 66
     1
 10
0
 20
0
 30
0.0
 70
     1
 40
0.141732
 41
0.141732
  0
VERTEX
  8
0
 10
548.982
 20
40.0032
 30
0.0
 40
0.0499999
 41
0.0499999
  0
VERTEX
  8
0
 10
543.267
 20
40.0032
 30
0.0
 40
0.0499999
 41
0.0499999
  0
VERTEX
  8
0
 10
543.267
 20
45.7179
 30
0.0
 40
0.0499999
 41
0.0499999
  0
VERTEX
  8
0
 10
554.697
 20
45.7179
 30
0.0
 40
0.0499999
 41
0.0499999
  0
VERTEX
  8
0
 10
554.697
 20
40.0032
 30
0.0
 40
0.0499999
 41
0.0499999
  0
VERTEX
  8
0
 10
548.982
 20
40.0032
 30
0.0
 40
0.0499999
 41
0.0499999
  0
SEQEND
 8
0
  0
POLYLINE
  8
0
 62
     5
 66
     1
 10
0
 20
0
 30
0.0
 70
     1
 40
0.141732
 41
0.141732
  0
VERTEX
  8
0
 10
571.842
 20
40.0032
 30
0.0
 40
0.0499999
 41
0.0499999
  0
VERTEX
  8
0
 10
566.127
 20
40.0032
 30
0.0
 40
0.0499999
 41
0.0499999
  0
VERTEX
  8
0
 10
566.127
 20
45.7179
 30
0.0
 40
0.0499999
 41
0.0499999
  0
VERTEX
  8
0
 10
577.557
 20
45.7179
 30
0.0
 40
0.0499999
 41
0.0499999
  0
VERTEX
  8
0
 10
577.557
 20
40.0032
 30
0.0
 40
0.0499999
 41
0.0499999
  0
VERTEX
  8
0
 10
571.842
 20
40.0032
 30
0.0
 40
0.0499999
 41
0.0499999
  0
SEQEND
 8
0
  0
POLYLINE
  8
0
 62
     5
 66
     1
 10
0
 20
0
 30
0.0
 70
     1
 40
0.141732
 41
0.141732
  0
VERTEX
  8
0
 10
594.702
 20
40.0032
 30
0.0
 40
0.0499999
 41
0.0499999
  0
VERTEX
  8
0
 10
588.987
 20
40.0032
 30
0.0
 40
0.0499999
 41
0.0499999
  0
VERTEX
  8
0
 10
588.987
 20
45.7179
 30
0.0
 40
0.0499999
 41
0.0499999
  0
VERTEX
  8
0
 10
600.417
 20
45.7179
 30
0.0
 40
0.0499999
 41
0.0499999
  0
VERTEX
  8
0
 10
600.417
 20
40.0032
 30
0.0
 40
0.0499999
 41
0.0499999
  0
VERTEX
  8
0
 10
594.702
 20
40.0032
 30
0.0
 40
0.0499999
 41
0.0499999
  0
SEQEND
 8
0
  0
POLYLINE
  8
0
 62
     5
 66
     1
 10
0
 20
0
 30
0.0
 70
     1
 40
0.141732
 41
0.141732
  0
VERTEX
  8
0
 10
617.562
 20
40.0032
 30
0.0
 40
0.0499999
 41
0.0499999
  0
VERTEX
  8
0
 10
611.847
 20
40.0032
 30
0.0
 40
0.0499999
 41
0.0499999
  0
VERTEX
  8
0
 10
611.847
 20
45.7179
 30
0.0
 40
0.0499999
 41
0.0499999
  0
VERTEX
  8
0
 10
623.277
 20
45.7179
 30
0.0
 40
0.0499999
 41
0.0499999
  0
VERTEX
  8
0
 10
623.277
 20
40.0032
 30
0.0
 40
0.0499999
 41
0.0499999
  0
VERTEX
  8
0
 10
617.562
 20
40.0032
 30
0.0
 40
0.0499999
 41
0.0499999
  0
SEQEND
 8
0
  0
TEXT
  8
0
 62
     1
 10
471.177
 20
101.341
 30
0.0
 40
4.0005
  1
Right Side
 50
0
  0
POLYLINE
  8
0
 62
     0
 66
     1
 10
0
 20
0
 30
0.0
 70
     1
 40
0.141732
 41
0.141732
  0
VERTEX
  8
0
 10
330.402
 20
22.8575
 30
0.0
 40
0.0499999
 41
0.0499999
  0
VERTEX
  8
0
 10
353.265
 20
22.8575
 30
0.0
 40
0.0499999
 41
0.0499999
  0
VERTEX
  8
0
 10
353.635
 20
22.8575
 30
0.0
 40
0.0499999
 41
0.0499999
  0
VERTEX
  8
0
 10
354.757
 20
22.9567
 30
0.0
 40
0.0499999
 41
0.0499999
  0
VERTEX
  8
0
 10
356.221
 20
23.2475
 30
0.0
 40
0.0499999
 41
0.0499999
  0
VERTEX
  8
0
 10
357.632
 20
23.7271
 30
0.0
 40
0.0499999
 41
0.0499999
  0
VERTEX
  8
0
 10
358.655
 20
24.2025
 30
0.0
 40
0.0499999
 41
0.0499999
  0
VERTEX
  8
0
 10
358.976
 20
24.3885
 30
0.0
 40
0.0499999
 41
0.0499999
  0
VERTEX
  8
0
 10
359.138
 20
24.4822
 30
0.0
 40
0.0499999
 41
0.0499999
  0
VERTEX
  8
0
 10
359.615
 20
24.7854
 30
0.0
 40
0.0499999
 41
0.0499999
  0
VERTEX
  8
0
 10
360.221
 20
25.2222
 30
0.0
 40
0.0499999
 41
0.0499999
  0
VERTEX
  8
0
 10
360.8
 20
25.6963
 30
0.0
 40
0.0499999
 41
0.0499999
  0
VERTEX
  8
0
 10
361.343
 20
26.2062
 30
0.0
 40
0.0499999
 41
0.0499999
  0
VERTEX
  8
0
 10
361.855
 20
26.7505
 30
0.0
 40
0.0499999
 41
0.0499999
  0
VERTEX
  8
0
 10
362.327
 20
27.3279
 30
0.0
 40
0.0499999
 41
0.0499999
  0
VERTEX
  8
0
 10
362.765
 20
27.9356
 30
0.0
 40
0.0499999
 41
0.0499999
  0
VERTEX
  8
0
 10
363.068
 20
28.411
 30
0.0
 40
0.0499999
 41
0.0499999
  0
VERTEX
  8
0
 10
363.16
 20
28.5722
 30
0.0
 40
0.0499999
 41
0.0499999
  0
VERTEX
  8
0
 10
363.255
 20
28.7348
 30
0.0
 40
0.0499999
 41
0.0499999
  0
VERTEX
  8
0
 10
363.555
 20
29.2103
 30
0.0
 40
0.0499999
 41
0.0499999
  0
VERTEX
  8
0
 10
363.993
 20
29.818
 30
0.0
 40
0.0499999
 41
0.0499999
  0
VERTEX
  8
0
 10
364.469
 20
30.3954
 30
0.0
 40
0.0499999
 41
0.0499999
  0
VERTEX
  8
0
 10
364.977
 20
30.9397
 30
0.0
 40
0.0499999
 41
0.0499999
  0
VERTEX
  8
0
 10
365.524
 20
31.4496
 30
0.0
 40
0.0499999
 41
0.0499999
  0
VERTEX
  8
0
 10
366.099
 20
31.9236
 30
0.0
 40
0.0499999
 41
0.0499999
  0
VERTEX
  8
0
 10
366.705
 20
32.3605
 30
0.0
 40
0.0499999
 41
0.0499999
  0
VERTEX
  8
0
 10
367.182
 20
32.6622
 30
0.0
 40
0.0499999
 41
0.0499999
  0
VERTEX
  8
0
 10
367.344
 20
32.756
 30
0.0
 40
0.0499999
 41
0.0499999
  0
VERTEX
  8
0
 10
367.669
 20
32.9434
 30
0.0
 40
0.0499999
 41
0.0499999
  0
VERTEX
  8
0
 10
368.688
 20
33.4188
 30
0.0
 40
0.0499999
 41
0.0499999
  0
VERTEX
  8
0
 10
370.103
 20
33.8983
 30
0.0
 40
0.0499999
 41
0.0499999
  0
VERTEX
  8
0
 10
371.563
 20
34.1891
 30
0.0
 40
0.0499999
 41
0.0499999
  0
VERTEX
  8
0
 10
372.685
 20
34.287
 30
0.0
 40
0.0499999
 41
0.0499999
  0
VERTEX
  8
0
 10
373.059
 20
34.287
 30
0.0
 40
0.0499999
 41
0.0499999
  0
VERTEX
  8
0
 10
587.745
 20
34.287
 30
0.0
 40
0.0499999
 41
0.0499999
  0
VERTEX
  8
0
 10
588.119
 20
34.287
 30
0.0
 40
0.0499999
 41
0.0499999
  0
VERTEX
  8
0
 10
589.241
 20
34.1891
 30
0.0
 40
0.0499999
 41
0.0499999
  0
VERTEX
  8
0
 10
590.702
 20
33.8983
 30
0.0
 40
0.0499999
 41
0.0499999
  0
VERTEX
  8
0
 10
592.116
 20
33.4188
 30
0.0
 40
0.0499999
 41
0.0499999
  0
VERTEX
  8
0
 10
593.136
 20
32.9434
 30
0.0
 40
0.0499999
 41
0.0499999
  0
VERTEX
  8
0
 10
593.46
 20
32.756
 30
0.0
 40
0.0499999
 41
0.0499999
  0
VERTEX
  8
0
 10
593.623
 20
32.6636
 30
0.0
 40
0.0499999
 41
0.0499999
  0
VERTEX
  8
0
 10
594.095
 20
32.3605
 30
0.0
 40
0.0499999
 41
0.0499999
  0
VERTEX
  8
0
 10
594.706
 20
31.9236
 30
0.0
 40
0.0499999
 41
0.0499999
  0
VERTEX
  8
0
 10
595.281
 20
31.4496
 30
0.0
 40
0.0499999
 41
0.0499999
  0
VERTEX
  8
0
 10
595.828
 20
30.9397
 30
0.0
 40
0.0499999
 41
0.0499999
  0
VERTEX
  8
0
 10
596.336
 20
30.3954
 30
0.0
 40
0.0499999
 41
0.0499999
  0
VERTEX
  8
0
 10
596.812
 20
29.818
 30
0.0
 40
0.0499999
 41
0.0499999
  0
VERTEX
  8
0
 10
597.246
 20
29.2103
 30
0.0
 40
0.0499999
 41
0.0499999
  0
VERTEX
  8
0
 10
597.549
 20
28.7348
 30
0.0
 40
0.0499999
 41
0.0499999
  0
VERTEX
  8
0
 10
597.644
 20
28.5722
 30
0.0
 40
0.0499999
 41
0.0499999
  0
VERTEX
  8
0
 10
597.736
 20
28.411
 30
0.0
 40
0.0499999
 41
0.0499999
  0
VERTEX
  8
0
 10
598.039
 20
27.9356
 30
0.0
 40
0.0499999
 41
0.0499999
  0
VERTEX
  8
0
 10
598.477
 20
27.3279
 30
0.0
 40
0.0499999
 41
0.0499999
  0
VERTEX
  8
0
 10
598.95
 20
26.7505
 30
0.0
 40
0.0499999
 41
0.0499999
  0
VERTEX
  8
0
 10
599.461
 20
26.2062
 30
0.0
 40
0.0499999
 41
0.0499999
  0
VERTEX
  8
0
 10
600.004
 20
25.6963
 30
0.0
 40
0.0499999
 41
0.0499999
  0
VERTEX
  8
0
 10
600.583
 20
25.2222
 30
0.0
 40
0.0499999
 41
0.0499999
  0
VERTEX
  8
0
 10
601.19
 20
24.7854
 30
0.0
 40
0.0499999
 41
0.0499999
  0
VERTEX
  8
0
 10
601.666
 20
24.4822
 30
0.0
 40
0.0499999
 41
0.0499999
  0
VERTEX
  8
0
 10
601.828
 20
24.3885
 30
0.0
 40
0.0499999
 41
0.0499999
  0
VERTEX
  8
0
 10
602.149
 20
24.2025
 30
0.0
 40
0.0499999
 41
0.0499999
  0
VERTEX
  8
0
 10
603.172
 20
23.7271
 30
0.0
 40
0.0499999
 41
0.0499999
  0
VERTEX
  8
0
 10
604.584
 20
23.2475
 30
0.0
 40
0.0499999
 41
0.0499999
  0
VERTEX
  8
0
 10
606.048
 20
22.9567
 30
0.0
 40
0.0499999
 41
0.0499999
  0
VERTEX
  8
0
 10
607.169
 20
22.8575
 30
0.0
 40
0.0499999
 41
0.0499999
  0
VERTEX
  8
0
 10
607.543
 20
22.8575
 30
0.0
 40
0.0499999
 41
0.0499999
  0
VERTEX
  8
0
 10
630.403
 20
22.8575
 30
0.0
 40
0.0499999
 41
0.0499999
  0
VERTEX
  8
0
 10
630.403
 20
33.6917
 30
0.0
 40
0.0499999
 41
0.0499999
  0
VERTEX
  8
0
 10
636.118
 20
33.6917
 30
0.0
 40
0.0499999
 41
0.0499999
  0
VERTEX
  8
0
 10
636.118
 20
45.1224
 30
0.0
 40
0.0499999
 41
0.0499999
  0
VERTEX
  8
0
 10
630.403
 20
45.1224
 30
0.0
 40
0.0499999
 41
0.0499999
  0
VERTEX
  8
0
 10
630.403
 20
56.552
 30
0.0
 40
0.0499999
 41
0.0499999
  0
VERTEX
  8
0
 10
636.118
 20
56.552
 30
0.0
 40
0.0499999
 41
0.0499999
  0
VERTEX
  8
0
 10
636.118
 20
67.9813
 30
0.0
 40
0.0499999
 41
0.0499999
  0
VERTEX
  8
0
 10
630.403
 20
67.9813
 30
0.0
 40
0.0499999
 41
0.0499999
  0
VERTEX
  8
0
 10
630.403
 20
79.412
 30
0.0
 40
0.0499999
 41
0.0499999
  0
VERTEX
  8
0
 10
636.118
 20
79.412
 30
0.0
 40
0.0499999
 41
0.0499999
  0
VERTEX
  8
0
 10
636.118
 20
90.8417
 30
0.0
 40
0.0499999
 41
0.0499999
  0
VERTEX
  8
0
 10
630.403
 20
90.8417
 30
0.0
 40
0.0499999
 41
0.0499999
  0
VERTEX
  8
0
 10
630.403
 20
101.677
 30
0.0
 40
0.0499999
 41
0.0499999
  0
VERTEX
  8
0
 10
630.403
 20
105.718
 30
0.0
 40
0.0499999
 41
0.0499999
  0
VERTEX
  8
0
 10
623.69
 20
112.43
 30
0.0
 40
0.0499999
 41
0.0499999
  0
VERTEX
  8
0
 10
627.729
 20
116.47
 30
0.0
 40
0.0499999
 41
0.0499999
  0
VERTEX
  8
0
 10
619.647
 20
124.553
 30
0.0
 40
0.0499999
 41
0.0499999
  0
VERTEX
  8
0
 10
615.608
 20
120.512
 30
0.0
 40
0.0499999
 41
0.0499999
  0
VERTEX
  8
0
 10
607.526
 20
128.595
 30
0.0
 40
0.0499999
 41
0.0499999
  0
VERTEX
  8
0
 10
611.565
 20
132.635
 30
0.0
 40
0.0499999
 41
0.0499999
  0
VERTEX
  8
0
 10
603.483
 20
140.717
 30
0.0
 40
0.0499999
 41
0.0499999
  0
VERTEX
  8
0
 10
599.444
 20
136.677
 30
0.0
 40
0.0499999
 41
0.0499999
  0
VERTEX
  8
0
 10
591.361
 20
144.759
 30
0.0
 40
0.0499999
 41
0.0499999
  0
VERTEX
  8
0
 10
595.401
 20
148.801
 30
0.0
 40
0.0499999
 41
0.0499999
  0
VERTEX
  8
0
 10
587.319
 20
156.881
 30
0.0
 40
0.0499999
 41
0.0499999
  0
VERTEX
  8
0
 10
583.279
 20
152.841
 30
0.0
 40
0.0499999
 41
0.0499999
  0
VERTEX
  8
0
 10
575.197
 20
160.923
 30
0.0
 40
0.0499999
 41
0.0499999
  0
VERTEX
  8
0
 10
579.236
 20
164.963
 30
0.0
 40
0.0499999
 41
0.0499999
  0
VERTEX
  8
0
 10
571.154
 20
173.046
 30
0.0
 40
0.0499999
 41
0.0499999
  0
VERTEX
  8
0
 10
567.115
 20
169.005
 30
0.0
 40
0.0499999
 41
0.0499999
  0
VERTEX
  8
0
 10
560.402
 20
175.718
 30
0.0
 40
0.0499999
 41
0.0499999
  0
VERTEX
  8
0
 10
556.362
 20
175.718
 30
0.0
 40
0.0499999
 41
0.0499999
  0
VERTEX
  8
0
 10
551.967
 20
175.718
 30
0.0
 40
0.0499999
 41
0.0499999
  0
VERTEX
  8
0
 10
551.967
 20
181.433
 30
0.0
 40
0.0499999
 41
0.0499999
  0
VERTEX
  8
0
 10
540.537
 20
181.433
 30
0.0
 40
0.0499999
 41
0.0499999
  0
VERTEX
  8
0
 10
540.537
 20
175.718
 30
0.0
 40
0.0499999
 41
0.0499999
  0
VERTEX
  8
0
 10
529.107
 20
175.718
 30
0.0
 40
0.0499999
 41
0.0499999
  0
VERTEX
  8
0
 10
529.107
 20
181.433
 30
0.0
 40
0.0499999
 41
0.0499999
  0
VERTEX
  8
0
 10
517.677
 20
181.433
 30
0.0
 40
0.0499999
 41
0.0499999
  0
VERTEX
  8
0
 10
517.677
 20
175.718
 30
0.0
 40
0.0499999
 41
0.0499999
  0
VERTEX
  8
0
 10
506.247
 20
175.718
 30
0.0
 40
0.0499999
 41
0.0499999
  0
VERTEX
  8
0
 10
506.247
 20
181.433
 30
0.0
 40
0.0499999
 41
0.0499999
  0
VERTEX
  8
0
 10
494.817
 20
181.433
 30
0.0
 40
0.0499999
 41
0.0499999
  0
VERTEX
  8
0
 10
494.817
 20
175.718
 30
0.0
 40
0.0499999
 41
0.0499999
  0
VERTEX
  8
0
 10
483.387
 20
175.718
 30
0.0
 40
0.0499999
 41
0.0499999
  0
VERTEX
  8
0
 10
483.387
 20
181.433
 30
0.0
 40
0.0499999
 41
0.0499999
  0
VERTEX
  8
0
 10
471.957
 20
181.433
 30
0.0
 40
0.0499999
 41
0.0499999
  0
VERTEX
  8
0
 10
471.957
 20
175.718
 30
0.0
 40
0.0499999
 41
0.0499999
  0
VERTEX
  8
0
 10
460.527
 20
175.718
 30
0.0
 40
0.0499999
 41
0.0499999
  0
VERTEX
  8
0
 10
460.527
 20
181.433
 30
0.0
 40
0.0499999
 41
0.0499999
  0
VERTEX
  8
0
 10
449.097
 20
181.433
 30
0.0
 40
0.0499999
 41
0.0499999
  0
VERTEX
  8
0
 10
449.097
 20
175.718
 30
0.0
 40
0.0499999
 41
0.0499999
  0
VERTEX
  8
0
 10
437.667
 20
175.718
 30
0.0
 40
0.0499999
 41
0.0499999
  0
VERTEX
  8
0
 10
437.667
 20
181.433
 30
0.0
 40
0.0499999
 41
0.0499999
  0
VERTEX
  8
0
 10
426.237
 20
181.433
 30
0.0
 40
0.0499999
 41
0.0499999
  0
VERTEX
  8
0
 10
426.237
 20
175.718
 30
0.0
 40
0.0499999
 41
0.0499999
  0
VERTEX
  8
0
 10
414.807
 20
175.718
 30
0.0
 40
0.0499999
 41
0.0499999
  0
VERTEX
  8
0
 10
414.807
 20
181.433
 30
0.0
 40
0.0499999
 41
0.0499999
  0
VERTEX
  8
0
 10
403.377
 20
181.433
 30
0.0
 40
0.0499999
 41
0.0499999
  0
VERTEX
  8
0
 10
403.377
 20
175.718
 30
0.0
 40
0.0499999
 41
0.0499999
  0
VERTEX
  8
0
 10
391.947
 20
175.718
 30
0.0
 40
0.0499999
 41
0.0499999
  0
VERTEX
  8
0
 10
391.947
 20
181.433
 30
0.0
 40
0.0499999
 41
0.0499999
  0
VERTEX
  8
0
 10
380.517
 20
181.433
 30
0.0
 40
0.0499999
 41
0.0499999
  0
VERTEX
  8
0
 10
380.517
 20
175.718
 30
0.0
 40
0.0499999
 41
0.0499999
  0
VERTEX
  8
0
 10
369.087
 20
175.718
 30
0.0
 40
0.0499999
 41
0.0499999
  0
VERTEX
  8
0
 10
369.087
 20
181.433
 30
0.0
 40
0.0499999
 41
0.0499999
  0
VERTEX
  8
0
 10
357.657
 20
181.433
 30
0.0
 40
0.0499999
 41
0.0499999
  0
VERTEX
  8
0
 10
357.657
 20
175.718
 30
0.0
 40
0.0499999
 41
0.0499999
  0
VERTEX
  8
0
 10
346.227
 20
175.718
 30
0.0
 40
0.0499999
 41
0.0499999
  0
VERTEX
  8
0
 10
346.227
 20
181.433
 30
0.0
 40
0.0499999
 41
0.0499999
  0
VERTEX
  8
0
 10
334.797
 20
181.433
 30
0.0
 40
0.0499999
 41
0.0499999
  0
VERTEX
  8
0
 10
334.797
 20
175.718
 30
0.0
 40
0.0499999
 41
0.0499999
  0
VERTEX
  8
0
 10
330.402
 20
175.718
 30
0.0
 40
0.0499999
 41
0.0499999
  0
VERTEX
  8
0
 10
330.402
 20
162.153
 30
0.0
 40
0.0499999
 41
0.0499999
  0
VERTEX
  8
0
 10
324.688
 20
162.153
 30
0.0
 40
0.0499999
 41
0.0499999
  0
VERTEX
  8
0
 10
324.688
 20
150.723
 30
0.0
 40
0.0499999
 41
0.0499999
  0
VERTEX
  8
0
 10
330.402
 20
150.723
 30
0.0
 40
0.0499999
 41
0.0499999
  0
VERTEX
  8
0
 10
330.402
 20
139.292
 30
0.0
 40
0.0499999
 41
0.0499999
  0
VERTEX
  8
0
 10
324.688
 20
139.292
 30
0.0
 40
0.0499999
 41
0.0499999
  0
VERTEX
  8
0
 10
324.688
 20
127.863
 30
0.0
 40
0.0499999
 41
0.0499999
  0
VERTEX
  8
0
 10
330.402
 20
127.863
 30
0.0
 40
0.0499999
 41
0.0499999
  0
VERTEX
  8
0
 10
330.402
 20
116.433
 30
0.0
 40
0.0499999
 41
0.0499999
  0
VERTEX
  8
0
 10
324.688
 20
116.433
 30
0.0
 40
0.0499999
 41
0.0499999
  0
VERTEX
  8
0
 10
324.688
 20
105.003
 30
0.0
 40
0.0499999
 41
0.0499999
  0
VERTEX
  8
0
 10
330.402
 20
105.003
 30
0.0
 40
0.0499999
 41
0.0499999
  0
VERTEX
  8
0
 10
330.402
 20
93.5729
 30
0.0
 40
0.0499999
 41
0.0499999
  0
VERTEX
  8
0
 10
324.688
 20
93.5729
 30
0.0
 40
0.0499999
 41
0.0499999
  0
VERTEX
  8
0
 10
324.688
 20
82.1422
 30
0.0
 40
0.0499999
 41
0.0499999
  0
VERTEX
  8
0
 10
330.402
 20
82.1422
 30
0.0
 40
0.0499999
 41
0.0499999
  0
VERTEX
  8
0
 10
330.402
 20
70.7125
 30
0.0
 40
0.0499999
 41
0.0499999
  0
VERTEX
  8
0
 10
324.688
 20
70.7125
 30
0.0
 40
0.0499999
 41
0.0499999
  0
VERTEX
  8
0
 10
324.688
 20
59.2832
 30
0.0
 40
0.0499999
 41
0.0499999
  0
VERTEX
  8
0
 10
330.402
 20
59.2832
 30
0.0
 40
0.0499999
 41
0.0499999
  0
VERTEX
  8
0
 10
330.402
 20
47.8525
 30
0.0
 40
0.0499999
 41
0.0499999
  0
VERTEX
  8
0
 10
324.688
 20
47.8525
 30
0.0
 40
0.0499999
 41
0.0499999
  0
VERTEX
  8
0
 10
324.688
 20
36.4229
 30
0.0
 40
0.0499999
 41
0.0499999
  0
VERTEX
  8
0
 10
330.402
 20
36.4229
 30
0.0
 40
0.0499999
 41
0.0499999
  0
VERTEX
  8
0
 10
330.402
 20
22.8575
 30
0.0
 40
0.0499999
 41
0.0499999
  0
SEQEND
 8
0
  0
TEXT
  8
0
 62
     1
 10
790.134
 20
157.769
 30
0.0
 40
4.0005
  1
Floor
 50
0
  0
POLYLINE
  8
0
 62
     0
 66
     1
 10
0
 20
0
 30
0.0
 70
     1
 40
0.141732
 41
0.141732
  0
VERTEX
  8
0
 10
644.691
 20
28.5722
 30
0.0
 40
0.0499999
 41
0.0499999
  0
VERTEX
  8
0
 10
651.813
 20
28.5722
 30
0.0
 40
0.0499999
 41
0.0499999
  0
VERTEX
  8
0
 10
651.813
 20
22.8575
 30
0.0
 40
0.0499999
 41
0.0499999
  0
VERTEX
  8
0
 10
663.247
 20
22.8575
 30
0.0
 40
0.0499999
 41
0.0499999
  0
VERTEX
  8
0
 10
663.247
 20
28.5722
 30
0.0
 40
0.0499999
 41
0.0499999
  0
VERTEX
  8
0
 10
674.673
 20
28.5722
 30
0.0
 40
0.0499999
 41
0.0499999
  0
VERTEX
  8
0
 10
674.673
 20
22.8575
 30
0.0
 40
0.0499999
 41
0.0499999
  0
VERTEX
  8
0
 10
686.103
 20
22.8575
 30
0.0
 40
0.0499999
 41
0.0499999
  0
VERTEX
  8
0
 10
686.103
 20
28.5722
 30
0.0
 40
0.0499999
 41
0.0499999
  0
VERTEX
  8
0
 10
697.537
 20
28.5722
 30
0.0
 40
0.0499999
 41
0.0499999
  0
VERTEX
  8
0
 10
697.537
 20
22.8575
 30
0.0
 40
0.0499999
 41
0.0499999
  0
VERTEX
  8
0
 10
708.963
 20
22.8575
 30
0.0
 40
0.0499999
 41
0.0499999
  0
VERTEX
  8
0
 10
708.963
 20
28.5722
 30
0.0
 40
0.0499999
 41
0.0499999
  0
VERTEX
  8
0
 10
720.397
 20
28.5722
 30
0.0
 40
0.0499999
 41
0.0499999
  0
VERTEX
  8
0
 10
720.397
 20
22.8575
 30
0.0
 40
0.0499999
 41
0.0499999
  0
VERTEX
  8
0
 10
731.823
 20
22.8575
 30
0.0
 40
0.0499999
 41
0.0499999
  0
VERTEX
  8
0
 10
731.823
 20
28.5722
 30
0.0
 40
0.0499999
 41
0.0499999
  0
VERTEX
  8
0
 10
743.253
 20
28.5722
 30
0.0
 40
0.0499999
 41
0.0499999
  0
VERTEX
  8
0
 10
743.253
 20
22.8575
 30
0.0
 40
0.0499999
 41
0.0499999
  0
VERTEX
  8
0
 10
754.687
 20
22.8575
 30
0.0
 40
0.0499999
 41
0.0499999
  0
VERTEX
  8
0
 10
754.687
 20
28.5722
 30
0.0
 40
0.0499999
 41
0.0499999
  0
VERTEX
  8
0
 10
766.113
 20
28.5722
 30
0.0
 40
0.0499999
 41
0.0499999
  0
VERTEX
  8
0
 10
766.113
 20
22.8575
 30
0.0
 40
0.0499999
 41
0.0499999
  0
VERTEX
  8
0
 10
777.547
 20
22.8575
 30
0.0
 40
0.0499999
 41
0.0499999
  0
VERTEX
  8
0
 10
777.547
 20
28.5722
 30
0.0
 40
0.0499999
 41
0.0499999
  0
VERTEX
  8
0
 10
788.973
 20
28.5722
 30
0.0
 40
0.0499999
 41
0.0499999
  0
VERTEX
  8
0
 10
788.973
 20
22.8575
 30
0.0
 40
0.0499999
 41
0.0499999
  0
VERTEX
  8
0
 10
800.403
 20
22.8575
 30
0.0
 40
0.0499999
 41
0.0499999
  0
VERTEX
  8
0
 10
800.403
 20
28.5722
 30
0.0
 40
0.0499999
 41
0.0499999
  0
VERTEX
  8
0
 10
811.837
 20
28.5722
 30
0.0
 40
0.0499999
 41
0.0499999
  0
VERTEX
  8
0
 10
811.837
 20
22.8575
 30
0.0
 40
0.0499999
 41
0.0499999
  0
VERTEX
  8
0
 10
823.263
 20
22.8575
 30
0.0
 40
0.0499999
 41
0.0499999
  0
VERTEX
  8
0
 10
823.263
 20
28.5722
 30
0.0
 40
0.0499999
 41
0.0499999
  0
VERTEX
  8
0
 10
834.697
 20
28.5722
 30
0.0
 40
0.0499999
 41
0.0499999
  0
VERTEX
  8
0
 10
834.697
 20
22.8575
 30
0.0
 40
0.0499999
 41
0.0499999
  0
VERTEX
  8
0
 10
846.123
 20
22.8575
 30
0.0
 40
0.0499999
 41
0.0499999
  0
VERTEX
  8
0
 10
846.123
 20
28.5722
 30
0.0
 40
0.0499999
 41
0.0499999
  0
VERTEX
  8
0
 10
857.553
 20
28.5722
 30
0.0
 40
0.0499999
 41
0.0499999
  0
VERTEX
  8
0
 10
857.553
 20
22.8575
 30
0.0
 40
0.0499999
 41
0.0499999
  0
VERTEX
  8
0
 10
868.987
 20
22.8575
 30
0.0
 40
0.0499999
 41
0.0499999
  0
VERTEX
  8
0
 10
868.987
 20
28.5722
 30
0.0
 40
0.0499999
 41
0.0499999
  0
VERTEX
  8
0
 10
880.413
 20
28.5722
 30
0.0
 40
0.0499999
 41
0.0499999
  0
VERTEX
  8
0
 10
880.413
 20
22.8575
 30
0.0
 40
0.0499999
 41
0.0499999
  0
VERTEX
  8
0
 10
891.847
 20
22.8575
 30
0.0
 40
0.0499999
 41
0.0499999
  0
VERTEX
  8
0
 10
891.847
 20
28.5722
 30
0.0
 40
0.0499999
 41
0.0499999
  0
VERTEX
  8
0
 10
903.273
 20
28.5722
 30
0.0
 40
0.0499999
 41
0.0499999
  0
VERTEX
  8
0
 10
903.273
 20
22.8575
 30
0.0
 40
0.0499999
 41
0.0499999
  0
VERTEX
  8
0
 10
914.703
 20
22.8575
 30
0.0
 40
0.0499999
 41
0.0499999
  0
VERTEX
  8
0
 10
914.703
 20
28.5722
 30
0.0
 40
0.0499999
 41
0.0499999
  0
VERTEX
  8
0
 10
926.137
 20
28.5722
 30
0.0
 40
0.0499999
 41
0.0499999
  0
VERTEX
  8
0
 10
926.137
 20
22.8575
 30
0.0
 40
0.0499999
 41
0.0499999
  0
VERTEX
  8
0
 10
937.563
 20
22.8575
 30
0.0
 40
0.0499999
 41
0.0499999
  0
VERTEX
  8
0
 10
937.563
 20
28.5722
 30
0.0
 40
0.0499999
 41
0.0499999
  0
VERTEX
  8
0
 10
944.69
 20
28.5722
 30
0.0
 40
0.0499999
 41
0.0499999
  0
VERTEX
  8
0
 10
944.69
 20
38.5576
 30
0.0
 40
0.0499999
 41
0.0499999
  0
VERTEX
  8
0
 10
950.405
 20
38.5576
 30
0.0
 40
0.0499999
 41
0.0499999
  0
VERTEX
  8
0
 10
950.405
 20
49.9868
 30
0.0
 40
0.0499999
 41
0.0499999
  0
VERTEX
  8
0
 10
944.69
 20
49.9868
 30
0.0
 40
0.0499999
 41
0.0499999
  0
VERTEX
  8
0
 10
944.69
 20
61.4179
 30
0.0
 40
0.0499999
 41
0.0499999
  0
VERTEX
  8
0
 10
950.405
 20
61.4179
 30
0.0
 40
0.0499999
 41
0.0499999
  0
VERTEX
  8
0
 10
950.405
 20
72.8472
 30
0.0
 40
0.0499999
 41
0.0499999
  0
VERTEX
  8
0
 10
944.69
 20
72.8472
 30
0.0
 40
0.0499999
 41
0.0499999
  0
VERTEX
  8
0
 10
944.69
 20
84.2779
 30
0.0
 40
0.0499999
 41
0.0499999
  0
VERTEX
  8
0
 10
950.405
 20
84.2779
 30
0.0
 40
0.0499999
 41
0.0499999
  0
VERTEX
  8
0
 10
950.405
 20
95.7076
 30
0.0
 40
0.0499999
 41
0.0499999
  0
VERTEX
  8
0
 10
944.69
 20
95.7076
 30
0.0
 40
0.0499999
 41
0.0499999
  0
VERTEX
  8
0
 10
944.69
 20
107.137
 30
0.0
 40
0.0499999
 41
0.0499999
  0
VERTEX
  8
0
 10
950.405
 20
107.137
 30
0.0
 40
0.0499999
 41
0.0499999
  0
VERTEX
  8
0
 10
950.405
 20
118.568
 30
0.0
 40
0.0499999
 41
0.0499999
  0
VERTEX
  8
0
 10
944.69
 20
118.568
 30
0.0
 40
0.0499999
 41
0.0499999
  0
VERTEX
  8
0
 10
944.69
 20
129.997
 30
0.0
 40
0.0499999
 41
0.0499999
  0
VERTEX
  8
0
 10
950.405
 20
129.997
 30
0.0
 40
0.0499999
 41
0.0499999
  0
VERTEX
  8
0
 10
950.405
 20
141.428
 30
0.0
 40
0.0499999
 41
0.0499999
  0
VERTEX
  8
0
 10
944.69
 20
141.428
 30
0.0
 40
0.0499999
 41
0.0499999
  0
VERTEX
  8
0
 10
944.69
 20
152.858
 30
0.0
 40
0.0499999
 41
0.0499999
  0
VERTEX
  8
0
 10
950.405
 20
152.858
 30
0.0
 40
0.0499999
 41
0.0499999
  0
VERTEX
  8
0
 10
950.405
 20
164.287
 30
0.0
 40
0.0499999
 41
0.0499999
  0
VERTEX
  8
0
 10
944.69
 20
164.287
 30
0.0
 40
0.0499999
 41
0.0499999
  0
VERTEX
  8
0
 10
944.69
 20
175.718
 30
0.0
 40
0.0499999
 41
0.0499999
  0
VERTEX
  8
0
 10
950.405
 20
175.718
 30
0.0
 40
0.0499999
 41
0.0499999
  0
VERTEX
  8
0
 10
950.405
 20
187.147
 30
0.0
 40
0.0499999
 41
0.0499999
  0
VERTEX
  8
0
 10
944.69
 20
187.147
 30
0.0
 40
0.0499999
 41
0.0499999
  0
VERTEX
  8
0
 10
944.69
 20
198.578
 30
0.0
 40
0.0499999
 41
0.0499999
  0
VERTEX
  8
0
 10
950.405
 20
198.578
 30
0.0
 40
0.0499999
 41
0.0499999
  0
VERTEX
  8
0
 10
950.405
 20
210.008
 30
0.0
 40
0.0499999
 41
0.0499999
  0
VERTEX
  8
0
 10
944.69
 20
210.008
 30
0.0
 40
0.0499999
 41
0.0499999
  0
VERTEX
  8
0
 10
944.69
 20
221.437
 30
0.0
 40
0.0499999
 41
0.0499999
  0
VERTEX
  8
0
 10
950.405
 20
221.437
 30
0.0
 40
0.0499999
 41
0.0499999
  0
VERTEX
  8
0
 10
950.405
 20
232.868
 30
0.0
 40
0.0499999
 41
0.0499999
  0
VERTEX
  8
0
 10
944.69
 20
232.868
 30
0.0
 40
0.0499999
 41
0.0499999
  0
VERTEX
  8
0
 10
944.69
 20
244.297
 30
0.0
 40
0.0499999
 41
0.0499999
  0
VERTEX
  8
0
 10
950.405
 20
244.297
 30
0.0
 40
0.0499999
 41
0.0499999
  0
VERTEX
  8
0
 10
950.405
 20
255.728
 30
0.0
 40
0.0499999
 41
0.0499999
  0
VERTEX
  8
0
 10
944.69
 20
255.728
 30
0.0
 40
0.0499999
 41
0.0499999
  0
VERTEX
  8
0
 10
944.69
 20
267.158
 30
0.0
 40
0.0499999
 41
0.0499999
  0
VERTEX
  8
0
 10
950.405
 20
267.158
 30
0.0
 40
0.0499999
 41
0.0499999
  0
VERTEX
  8
0
 10
950.405
 20
278.587
 30
0.0
 40
0.0499999
 41
0.0499999
  0
VERTEX
  8
0
 10
944.69
 20
278.587
 30
0.0
 40
0.0499999
 41
0.0499999
  0
VERTEX
  8
0
 10
944.69
 20
288.572
 30
0.0
 40
0.0499999
 41
0.0499999
  0
VERTEX
  8
0
 10
937.563
 20
288.572
 30
0.0
 40
0.0499999
 41
0.0499999
  0
VERTEX
  8
0
 10
937.563
 20
294.287
 30
0.0
 40
0.0499999
 41
0.0499999
  0
VERTEX
  8
0
 10
926.137
 20
294.287
 30
0.0
 40
0.0499999
 41
0.0499999
  0
VERTEX
  8
0
 10
926.137
 20
288.572
 30
0.0
 40
0.0499999
 41
0.0499999
  0
VERTEX
  8
0
 10
914.703
 20
288.572
 30
0.0
 40
0.0499999
 41
0.0499999
  0
VERTEX
  8
0
 10
914.703
 20
294.287
 30
0.0
 40
0.0499999
 41
0.0499999
  0
VERTEX
  8
0
 10
903.273
 20
294.287
 30
0.0
 40
0.0499999
 41
0.0499999
  0
VERTEX
  8
0
 10
903.273
 20
288.572
 30
0.0
 40
0.0499999
 41
0.0499999
  0
VERTEX
  8
0
 10
891.847
 20
288.572
 30
0.0
 40
0.0499999
 41
0.0499999
  0
VERTEX
  8
0
 10
891.847
 20
294.287
 30
0.0
 40
0.0499999
 41
0.0499999
  0
VERTEX
  8
0
 10
880.413
 20
294.287
 30
0.0
 40
0.0499999
 41
0.0499999
  0
VERTEX
  8
0
 10
880.413
 20
288.572
 30
0.0
 40
0.0499999
 41
0.0499999
  0
VERTEX
  8
0
 10
868.987
 20
288.572
 30
0.0
 40
0.0499999
 41
0.0499999
  0
VERTEX
  8
0
 10
868.987
 20
294.287
 30
0.0
 40
0.0499999
 41
0.0499999
  0
VERTEX
  8
0
 10
857.553
 20
294.287
 30
0.0
 40
0.0499999
 41
0.0499999
  0
VERTEX
  8
0
 10
857.553
 20
288.572
 30
0.0
 40
0.0499999
 41
0.0499999
  0
VERTEX
  8
0
 10
846.123
 20
288.572
 30
0.0
 40
0.0499999
 41
0.0499999
  0
VERTEX
  8
0
 10
846.123
 20
294.287
 30
0.0
 40
0.0499999
 41
0.0499999
  0
VERTEX
  8
0
 10
834.697
 20
294.287
 30
0.0
 40
0.0499999
 41
0.0499999
  0
VERTEX
  8
0
 10
834.697
 20
288.572
 30
0.0
 40
0.0499999
 41
0.0499999
  0
VERTEX
  8
0
 10
823.263
 20
288.572
 30
0.0
 40
0.0499999
 41
0.0499999
  0
VERTEX
  8
0
 10
823.263
 20
294.287
 30
0.0
 40
0.0499999
 41
0.0499999
  0
VERTEX
  8
0
 10
811.837
 20
294.287
 30
0.0
 40
0.0499999
 41
0.0499999
  0
VERTEX
  8
0
 10
811.837
 20
288.572
 30
0.0
 40
0.0499999
 41
0.0499999
  0
VERTEX
  8
0
 10
800.403
 20
288.572
 30
0.0
 40
0.0499999
 41
0.0499999
  0
VERTEX
  8
0
 10
800.403
 20
294.287
 30
0.0
 40
0.0499999
 41
0.0499999
  0
VERTEX
  8
0
 10
788.973
 20
294.287
 30
0.0
 40
0.0499999
 41
0.0499999
  0
VERTEX
  8
0
 10
788.973
 20
288.572
 30
0.0
 40
0.0499999
 41
0.0499999
  0
VERTEX
  8
0
 10
777.547
 20
288.572
 30
0.0
 40
0.0499999
 41
0.0499999
  0
VERTEX
  8
0
 10
777.547
 20
294.287
 30
0.0
 40
0.0499999
 41
0.0499999
  0
VERTEX
  8
0
 10
766.113
 20
294.287
 30
0.0
 40
0.0499999
 41
0.0499999
  0
VERTEX
  8
0
 10
766.113
 20
288.572
 30
0.0
 40
0.0499999
 41
0.0499999
  0
VERTEX
  8
0
 10
754.687
 20
288.572
 30
0.0
 40
0.0499999
 41
0.0499999
  0
VERTEX
  8
0
 10
754.687
 20
294.287
 30
0.0
 40
0.0499999
 41
0.0499999
  0
VERTEX
  8
0
 10
743.253
 20
294.287
 30
0.0
 40
0.0499999
 41
0.0499999
  0
VERTEX
  8
0
 10
743.253
 20
288.572
 30
0.0
 40
0.0499999
 41
0.0499999
  0
VERTEX
  8
0
 10
731.823
 20
288.572
 30
0.0
 40
0.0499999
 41
0.0499999
  0
VERTEX
  8
0
 10
731.823
 20
294.287
 30
0.0
 40
0.0499999
 41
0.0499999
  0
VERTEX
  8
0
 10
720.397
 20
294.287
 30
0.0
 40
0.0499999
 41
0.0499999
  0
VERTEX
  8
0
 10
720.397
 20
288.572
 30
0.0
 40
0.0499999
 41
0.0499999
  0
VERTEX
  8
0
 10
708.963
 20
288.572
 30
0.0
 40
0.0499999
 41
0.0499999
  0
VERTEX
  8
0
 10
708.963
 20
294.287
 30
0.0
 40
0.0499999
 41
0.0499999
  0
VERTEX
  8
0
 10
697.537
 20
294.287
 30
0.0
 40
0.0499999
 41
0.0499999
  0
VERTEX
  8
0
 10
697.537
 20
288.572
 30
0.0
 40
0.0499999
 41
0.0499999
  0
VERTEX
  8
0
 10
686.103
 20
288.572
 30
0.0
 40
0.0499999
 41
0.0499999
  0
VERTEX
  8
0
 10
686.103
 20
294.287
 30
0.0
 40
0.0499999
 41
0.0499999
  0
VERTEX
  8
0
 10
674.673
 20
294.287
 30
0.0
 40
0.0499999
 41
0.0499999
  0
VERTEX
  8
0
 10
674.673
 20
288.572
 30
0.0
 40
0.0499999
 41
0.0499999
  0
VERTEX
  8
0
 10
663.247
 20
288.572
 30
0.0
 40
0.0499999
 41
0.0499999
  0
VERTEX
  8
0
 10
663.247
 20
294.287
 30
0.0
 40
0.0499999
 41
0.0499999
  0
VERTEX
  8
0
 10
651.813
 20
294.287
 30
0.0
 40
0.0499999
 41
0.0499999
  0
VERTEX
  8
0
 10
651.813
 20
288.572
 30
0.0
 40
0.0499999
 41
0.0499999
  0
VERTEX
  8
0
 10
644.691
 20
288.572
 30
0.0
 40
0.0499999
 41
0.0499999
  0
VERTEX
  8
0
 10
644.691
 20
278.587
 30
0.0
 40
0.0499999
 41
0.0499999
  0
VERTEX
  8
0
 10
638.976
 20
278.587
 30
0.0
 40
0.0499999
 41
0.0499999
  0
VERTEX
  8
0
 10
638.976
 20
267.158
 30
0.0
 40
0.0499999
 41
0.0499999
  0
VERTEX
  8
0
 10
644.691
 20
267.158
 30
0.0
 40
0.0499999
 41
0.0499999
  0
VERTEX
  8
0
 10
644.691
 20
255.728
 30
0.0
 40
0.0499999
 41
0.0499999
  0
VERTEX
  8
0
 10
638.976
 20
255.728
 30
0.0
 40
0.0499999
 41
0.0499999
  0
VERTEX
  8
0
 10
638.976
 20
244.297
 30
0.0
 40
0.0499999
 41
0.0499999
  0
VERTEX
  8
0
 10
644.691
 20
244.297
 30
0.0
 40
0.0499999
 41
0.0499999
  0
VERTEX
  8
0
 10
644.691
 20
232.868
 30
0.0
 40
0.0499999
 41
0.0499999
  0
VERTEX
  8
0
 10
638.976
 20
232.868
 30
0.0
 40
0.0499999
 41
0.0499999
  0
VERTEX
  8
0
 10
638.976
 20
221.437
 30
0.0
 40
0.0499999
 41
0.0499999
  0
VERTEX
  8
0
 10
644.691
 20
221.437
 30
0.0
 40
0.0499999
 41
0.0499999
  0
VERTEX
  8
0
 10
644.691
 20
210.008
 30
0.0
 40
0.0499999
 41
0.0499999
  0
VERTEX
  8
0
 10
638.976
 20
210.008
 30
0.0
 40
0.0499999
 41
0.0499999
  0
VERTEX
  8
0
 10
638.976
 20
198.578
 30
0.0
 40
0.0499999
 41
0.0499999
  0
VERTEX
  8
0
 10
644.691
 20
198.578
 30
0.0
 40
0.0499999
 41
0.0499999
  0
VERTEX
  8
0
 10
644.691
 20
187.147
 30
0.0
 40
0.0499999
 41
0.0499999
  0
VERTEX
  8
0
 10
638.976
 20
187.147
 30
0.0
 40
0.0499999
 41
0.0499999
  0
VERTEX
  8
0
 10
638.976
 20
175.718
 30
0.0
 40
0.0499999
 41
0.0499999
  0
VERTEX
  8
0
 10
644.691
 20
175.718
 30
0.0
 40
0.0499999
 41
0.0499999
  0
VERTEX
  8
0
 10
644.691
 20
164.287
 30
0.0
 40
0.0499999
 41
0.0499999
  0
VERTEX
  8
0
 10
638.976
 20
164.287
 30
0.0
 40
0.0499999
 41
0.0499999
  0
VERTEX
  8
0
 10
638.976
 20
152.858
 30
0.0
 40
0.0499999
 41
0.0499999
  0
VERTEX
  8
0
 10
644.691
 20
152.858
 30
0.0
 40
0.0499999
 41
0.0499999
  0
VERTEX
  8
0
 10
644.691
 20
141.428
 30
0.0
 40
0.0499999
 41
0.0499999
  0
VERTEX
  8
0
 10
638.976
 20
141.428
 30
0.0
 40
0.0499999
 41
0.0499999
  0
VERTEX
  8
0
 10
638.976
 20
129.997
 30
0.0
 40
0.0499999
 41
0.0499999
  0
VERTEX
  8
0
 10
644.691
 20
129.997
 30
0.0
 40
0.0499999
 41
0.0499999
  0
VERTEX
  8
0
 10
644.691
 20
118.568
 30
0.0
 40
0.0499999
 41
0.0499999
  0
VERTEX
  8
0
 10
638.976
 20
118.568
 30
0.0
 40
0.0499999
 41
0.0499999
  0
VERTEX
  8
0
 10
638.976
 20
107.137
 30
0.0
 40
0.0499999
 41
0.0499999
  0
VERTEX
  8
0
 10
644.691
 20
107.137
 30
0.0
 40
0.0499999
 41
0.0499999
  0
VERTEX
  8
0
 10
644.691
 20
95.7076
 30
0.0
 40
0.0499999
 41
0.0499999
  0
VERTEX
  8
0
 10
638.976
 20
95.7076
 30
0.0
 40
0.0499999
 41
0.0499999
  0
VERTEX
  8
0
 10
638.976
 20
84.2779
 30
0.0
 40
0.0499999
 41
0.0499999
  0
VERTEX
  8
0
 10
644.691
 20
84.2779
 30
0.0
 40
0.0499999
 41
0.0499999
  0
VERTEX
  8
0
 10
644.691
 20
72.8472
 30
0.0
 40
0.0499999
 41
0.0499999
  0
VERTEX
  8
0
 10
638.976
 20
72.8472
 30
0.0
 40
0.0499999
 41
0.0499999
  0
VERTEX
  8
0
 10
638.976
 20
61.4179
 30
0.0
 40
0.0499999
 41
0.0499999
  0
VERTEX
  8
0
 10
644.691
 20
61.4179
 30
0.0
 40
0.0499999
 41
0.0499999
  0
VERTEX
  8
0
 10
644.691
 20
49.9868
 30
0.0
 40
0.0499999
 41
0.0499999
  0
VERTEX
  8
0
 10
638.976
 20
49.9868
 30
0.0
 40
0.0499999
 41
0.0499999
  0
VERTEX
  8
0
 10
638.976
 20
38.5576
 30
0.0
 40
0.0499999
 41
0.0499999
  0
VERTEX
  8
0
 10
644.691
 20
38.5576
 30
0.0
 40
0.0499999
 41
0.0499999
  0
VERTEX
  8
0
 10
644.691
 20
28.5722
 30
0.0
 40
0.0499999
 41
0.0499999
  0
SEQEND
 8
0
  0
TEXT
  8
0
 62
     1
 10
988.004
 20
157.769
 30
0.0
 40
4.0005
  1
Front
 50
0
  0
POLYLINE
  8
0
 62
     0
 66
     1
 10
0
 20
0
 30
0.0
 70
     1
 40
0.141732
 41
0.141732
  0
VERTEX
  8
0
 10
953.262
 20
22.8575
 30
0.0
 40
0.0499999
 41
0.0499999
  0
VERTEX
  8
0
 10
964.099
 20
22.8575
 30
0.0
 40
0.0499999
 41
0.0499999
  0
VERTEX
  8
0
 10
964.099
 20
28.5722
 30
0.0
 40
0.0499999
 41
0.0499999
  0
VERTEX
  8
0
 10
975.526
 20
28.5722
 30
0.0
 40
0.0499999
 41
0.0499999
  0
VERTEX
  8
0
 10
975.526
 20
22.8575
 30
0.0
 40
0.0499999
 41
0.0499999
  0
VERTEX
  8
0
 10
986.956
 20
22.8575
 30
0.0
 40
0.0499999
 41
0.0499999
  0
VERTEX
  8
0
 10
986.956
 20
28.5722
 30
0.0
 40
0.0499999
 41
0.0499999
  0
VERTEX
  8
0
 10
998.386
 20
28.5722
 30
0.0
 40
0.0499999
 41
0.0499999
  0
VERTEX
  8
0
 10
998.386
 20
22.8575
 30
0.0
 40
0.0499999
 41
0.0499999
  0
VERTEX
  8
0
 10
1009.82
 20
22.8575
 30
0.0
 40
0.0499999
 41
0.0499999
  0
VERTEX
  8
0
 10
1009.82
 20
28.5722
 30
0.0
 40
0.0499999
 41
0.0499999
  0
VERTEX
  8
0
 10
1021.25
 20
28.5722
 30
0.0
 40
0.0499999
 41
0.0499999
  0
VERTEX
  8
0
 10
1021.25
 20
22.8575
 30
0.0
 40
0.0499999
 41
0.0499999
  0
VERTEX
  8
0
 10
1032.08
 20
22.8575
 30
0.0
 40
0.0499999
 41
0.0499999
  0
VERTEX
  8
0
 10
1032.08
 20
28.5722
 30
0.0
 40
0.0499999
 41
0.0499999
  0
VERTEX
  8
0
 10
1032.08
 20
288.572
 30
0.0
 40
0.0499999
 41
0.0499999
  0
VERTEX
  8
0
 10
1032.08
 20
294.287
 30
0.0
 40
0.0499999
 41
0.0499999
  0
VERTEX
  8
0
 10
1021.25
 20
294.287
 30
0.0
 40
0.0499999
 41
0.0499999
  0
VERTEX
  8
0
 10
1021.25
 20
288.572
 30
0.0
 40
0.0499999
 41
0.0499999
  0
VERTEX
  8
0
 10
1009.82
 20
288.572
 30
0.0
 40
0.0499999
 41
0.0499999
  0
VERTEX
  8
0
 10
1009.82
 20
294.287
 30
0.0
 40
0.0499999
 41
0.0499999
  0
VERTEX
  8
0
 10
998.386
 20
294.287
 30
0.0
 40
0.0499999
 41
0.0499999
  0
VERTEX
  8
0
 10
998.386
 20
288.572
 30
0.0
 40
0.0499999
 41
0.0499999
  0
VERTEX
  8
0
 10
986.956
 20
288.572
 30
0.0
 40
0.0499999
 41
0.0499999
  0
VERTEX
  8
0
 10
986.956
 20
294.287
 30
0.0
 40
0.0499999
 41
0.0499999
  0
VERTEX
  8
0
 10
975.526
 20
294.287
 30
0.0
 40
0.0499999
 41
0.0499999
  0
VERTEX
  8
0
 10
975.526
 20
288.572
 30
0.0
 40
0.0499999
 41
0.0499999
  0
VERTEX
  8
0
 10
964.099
 20
288.572
 30
0.0
 40
0.0499999
 41
0.0499999
  0
VERTEX
  8
0
 10
964.099
 20
294.287
 30
0.0
 40
0.0499999
 41
0.0499999
  0
VERTEX
  8
0
 10
953.262
 20
294.287
 30
0.0
 40
0.0499999
 41
0.0499999
  0
VERTEX
  8
0
 10
953.262
 20
288.572
 30
0.0
 40
0.0499999
 41
0.0499999
  0
VERTEX
  8
0
 10
953.262
 20
265.712
 30
0.0
 40
0.0499999
 41
0.0499999
  0
VERTEX
  8
0
 10
953.262
 20
265.339
 30
0.0
 40
0.0499999
 41
0.0499999
  0
VERTEX
  8
0
 10
953.361
 20
264.218
 30
0.0
 40
0.0499999
 41
0.0499999
  0
VERTEX
  8
0
 10
953.654
 20
262.755
 30
0.0
 40
0.0499999
 41
0.0499999
  0
VERTEX
  8
0
 10
954.133
 20
261.342
 30
0.0
 40
0.0499999
 41
0.0499999
  0
VERTEX
  8
0
 10
954.606
 20
260.321
 30
0.0
 40
0.0499999
 41
0.0499999
  0
VERTEX
  8
0
 10
954.793
 20
259.997
 30
0.0
 40
0.0499999
 41
0.0499999
  0
VERTEX
  8
0
 10
954.888
 20
259.836
 30
0.0
 40
0.0499999
 41
0.0499999
  0
VERTEX
  8
0
 10
955.192
 20
259.36
 30
0.0
 40
0.0499999
 41
0.0499999
  0
VERTEX
  8
0
 10
955.626
 20
258.753
 30
0.0
 40
0.0499999
 41
0.0499999
  0
VERTEX
  8
0
 10
956.098
 20
258.175
 30
0.0
 40
0.0499999
 41
0.0499999
  0
VERTEX
  8
0
 10
956.61
 20
257.631
 30
0.0
 40
0.0499999
 41
0.0499999
  0
VERTEX
  8
0
 10
957.153
 20
257.121
 30
0.0
 40
0.0499999
 41
0.0499999
  0
VERTEX
  8
0
 10
957.732
 20
256.647
 30
0.0
 40
0.0499999
 41
0.0499999
  0
VERTEX
  8
0
 10
958.338
 20
256.211
 30
0.0
 40
0.0499999
 41
0.0499999
  0
VERTEX
  8
0
 10
958.815
 20
255.907
 30
0.0
 40
0.0499999
 41
0.0499999
  0
VERTEX
  8
0
 10
958.977
 20
255.814
 30
0.0
 40
0.0499999
 41
0.0499999
  0
VERTEX
  8
0
 10
959.139
 20
255.721
 30
0.0
 40
0.0499999
 41
0.0499999
  0
VERTEX
  8
0
 10
959.612
 20
255.418
 30
0.0
 40
0.0499999
 41
0.0499999
  0
VERTEX
  8
0
 10
960.222
 20
254.981
 30
0.0
 40
0.0499999
 41
0.0499999
  0
VERTEX
  8
0
 10
960.801
 20
254.507
 30
0.0
 40
0.0499999
 41
0.0499999
  0
VERTEX
  8
0
 10
961.344
 20
253.997
 30
0.0
 40
0.0499999
 41
0.0499999
  0
VERTEX
  8
0
 10
961.856
 20
253.453
 30
0.0
 40
0.0499999
 41
0.0499999
  0
VERTEX
  8
0
 10
962.328
 20
252.876
 30
0.0
 40
0.0499999
 41
0.0499999
  0
VERTEX
  8
0
 10
962.766
 20
252.268
 30
0.0
 40
0.0499999
 41
0.0499999
  0
VERTEX
  8
0
 10
963.069
 20
251.792
 30
0.0
 40
0.0499999
 41
0.0499999
  0
VERTEX
  8
0
 10
963.161
 20
251.63
 30
0.0
 40
0.0499999
 41
0.0499999
  0
VERTEX
  8
0
 10
963.348
 20
251.307
 30
0.0
 40
0.0499999
 41
0.0499999
  0
VERTEX
  8
0
 10
963.824
 20
250.286
 30
0.0
 40
0.0499999
 41
0.0499999
  0
VERTEX
  8
0
 10
964.304
 20
248.874
 30
0.0
 40
0.0499999
 41
0.0499999
  0
VERTEX
  8
0
 10
964.593
 20
247.41
 30
0.0
 40
0.0499999
 41
0.0499999
  0
VERTEX
  8
0
 10
964.692
 20
246.29
 30
0.0
 40
0.0499999
 41
0.0499999
  0
VERTEX
  8
0
 10
964.692
 20
245.915
 30
0.0
 40
0.0499999
 41
0.0499999
  0
VERTEX
  8
0
 10
964.692
 20
71.2294
 30
0.0
 40
0.0499999
 41
0.0499999
  0
VERTEX
  8
0
 10
964.692
 20
70.8561
 30
0.0
 40
0.0499999
 41
0.0499999
  0
VERTEX
  8
0
 10
964.593
 20
69.7357
 30
0.0
 40
0.0499999
 41
0.0499999
  0
VERTEX
  8
0
 10
964.304
 20
68.272
 30
0.0
 40
0.0499999
 41
0.0499999
  0
VERTEX
  8
0
 10
963.824
 20
66.8595
 30
0.0
 40
0.0499999
 41
0.0499999
  0
VERTEX
  8
0
 10
963.348
 20
65.8386
 30
0.0
 40
0.0499999
 41
0.0499999
  0
VERTEX
  8
0
 10
963.161
 20
65.5147
 30
0.0
 40
0.0499999
 41
0.0499999
  0
VERTEX
  8
0
 10
963.069
 20
65.3535
 30
0.0
 40
0.0499999
 41
0.0499999
  0
VERTEX
  8
0
 10
962.766
 20
64.878
 30
0.0
 40
0.0499999
 41
0.0499999
  0
VERTEX
  8
0
 10
962.328
 20
64.2705
 30
0.0
 40
0.0499999
 41
0.0499999
  0
VERTEX
  8
0
 10
961.856
 20
63.693
 30
0.0
 40
0.0499999
 41
0.0499999
  0
VERTEX
  8
0
 10
961.344
 20
63.1486
 30
0.0
 40
0.0499999
 41
0.0499999
  0
VERTEX
  8
0
 10
960.801
 20
62.6389
 30
0.0
 40
0.0499999
 41
0.0499999
  0
VERTEX
  8
0
 10
960.222
 20
62.1647
 30
0.0
 40
0.0499999
 41
0.0499999
  0
VERTEX
  8
0
 10
959.612
 20
61.728
 30
0.0
 40
0.0499999
 41
0.0499999
  0
VERTEX
  8
0
 10
959.139
 20
61.4246
 30
0.0
 40
0.0499999
 41
0.0499999
  0
VERTEX
  8
0
 10
958.977
 20
61.3311
 30
0.0
 40
0.0499999
 41
0.0499999
  0
VERTEX
  8
0
 10
958.815
 20
61.2373
 30
0.0
 40
0.0499999
 41
0.0499999
  0
VERTEX
  8
0
 10
958.338
 20
60.9353
 30
0.0
 40
0.0499999
 41
0.0499999
  0
VERTEX
  8
0
 10
957.732
 20
60.4986
 30
0.0
 40
0.0499999
 41
0.0499999
  0
VERTEX
  8
0
 10
957.153
 20
60.0244
 30
0.0
 40
0.0499999
 41
0.0499999
  0
VERTEX
  8
0
 10
956.61
 20
59.5147
 30
0.0
 40
0.0499999
 41
0.0499999
  0
VERTEX
  8
0
 10
956.098
 20
58.9703
 30
0.0
 40
0.0499999
 41
0.0499999
  0
VERTEX
  8
0
 10
955.626
 20
58.3928
 30
0.0
 40
0.0499999
 41
0.0499999
  0
VERTEX
  8
0
 10
955.192
 20
57.7854
 30
0.0
 40
0.0499999
 41
0.0499999
  0
VERTEX
  8
0
 10
954.888
 20
57.3098
 30
0.0
 40
0.0499999
 41
0.0499999
  0
VERTEX
  8
0
 10
954.793
 20
57.1472
 30
0.0
 40
0.0499999
 41
0.0499999
  0
VERTEX
  8
0
 10
954.606
 20
56.8247
 30
0.0
 40
0.0499999
 41
0.0499999
  0
VERTEX
  8
0
 10
954.133
 20
55.8038
 30
0.0
 40
0.0499999
 41
0.0499999
  0
VERTEX
  8
0
 10
953.654
 20
54.3913
 30
0.0
 40
0.0499999
 41
0.0499999
  0
VERTEX
  8
0
 10
953.361
 20
52.9276
 30
0.0
 40
0.0499999
 41
0.0499999
  0
VERTEX
  8
0
 10
953.262
 20
51.8072
 30
0.0
 40
0.0499999
 41
0.0499999
  0
VERTEX
  8
0
 10
953.262
 20
51.4325
 30
0.0
 40
0.0499999
 41
0.0499999
  0
VERTEX
  8
0
 10
953.262
 20
28.5722
 30
0.0
 40
0.0499999
 41
0.0499999
  0
VERTEX
  8
0
 10
953.262
 20
22.8575
 30
0.0
 40
0.0499999
 41
0.0499999
  0
SEQEND
 8
0
  0
POLYLINE
  8
0
 62
     5
 66
     1
 10
0
 20
0
 30
0.0
 70
     1
 40
0.141732
 41
0.141732
  0
VERTEX
  8
0
 10
970.407
 20
272.872
 30
0.0
 40
0.0499999
 41
0.0499999
  0
VERTEX
  8
0
 10
970.407
 20
278.587
 30
0.0
 40
0.0499999
 41
0.0499999
  0
VERTEX
  8
0
 10
976.122
 20
278.587
 30
0.0
 40
0.0499999
 41
0.0499999
  0
VERTEX
  8
0
 10
976.122
 20
267.158
 30
0.0
 40
0.0499999
 41
0.0499999
  0
VERTEX
  8
0
 10
970.407
 20
267.158
 30
0.0
 40
0.0499999
 41
0.0499999
  0
VERTEX
  8
0
 10
970.407
 20
272.872
 30
0.0
 40
0.0499999
 41
0.0499999
  0
SEQEND
 8
0
  0
POLYLINE
  8
0
 62
     5
 66
     1
 10
0
 20
0
 30
0.0
 70
     1
 40
0.141732
 41
0.141732
  0
VERTEX
  8
0
 10
970.407
 20
250.012
 30
0.0
 40
0.0499999
 41
0.0499999
  0
VERTEX
  8
0
 10
970.407
 20
255.728
 30
0.0
 40
0.0499999
 41
0.0499999
  0
VERTEX
  8
0
 10
976.122
 20
255.728
 30
0.0
 40
0.0499999
 41
0.0499999
  0
VERTEX
  8
0
 10
976.122
 20
244.297
 30
0.0
 40
0.0499999
 41
0.0499999
  0
VERTEX
  8
0
 10
970.407
 20
244.297
 30
0.0
 40
0.0499999
 41
0.0499999
  0
VERTEX
  8
0
 10
970.407
 20
250.012
 30
0.0
 40
0.0499999
 41
0.0499999
  0
SEQEND
 8
0
  0
POLYLINE
  8
0
 62
     5
 66
     1
 10
0
 20
0
 30
0.0
 70
     1
 40
0.141732
 41
0.141732
  0
VERTEX
  8
0
 10
970.407
 20
227.153
 30
0.0
 40
0.0499999
 41
0.0499999
  0
VERTEX
  8
0
 10
970.407
 20
232.868
 30
0.0
 40
0.0499999
 41
0.0499999
  0
VERTEX
  8
0
 10
976.122
 20
232.868
 30
0.0
 40
0.0499999
 41
0.0499999
  0
VERTEX
  8
0
 10
976.122
 20
221.437
 30
0.0
 40
0.0499999
 41
0.0499999
  0
VERTEX
  8
0
 10
970.407
 20
221.437
 30
0.0
 40
0.0499999
 41
0.0499999
  0
VERTEX
  8
0
 10
970.407
 20
227.153
 30
0.0
 40
0.0499999
 41
0.0499999
  0
SEQEND
 8
0
  0
POLYLINE
  8
0
 62
     5
 66
     1
 10
0
 20
0
 30
0.0
 70
     1
 40
0.141732
 41
0.141732
  0
VERTEX
  8
0
 10
970.407
 20
204.293
 30
0.0
 40
0.0499999
 41
0.0499999
  0
VERTEX
  8
0
 10
970.407
 20
210.008
 30
0.0
 40
0.0499999
 41
0.0499999
  0
VERTEX
  8
0
 10
976.122
 20
210.008
 30
0.0
 40
0.0499999
 41
0.0499999
  0
VERTEX
  8
0
 10
976.122
 20
198.578
 30
0.0
 40
0.0499999
 41
0.0499999
  0
VERTEX
  8
0
 10
970.407
 20
198.578
 30
0.0
 40
0.0499999
 41
0.0499999
  0
VERTEX
  8
0
 10
970.407
 20
204.293
 30
0.0
 40
0.0499999
 41
0.0499999
  0
SEQEND
 8
0
  0
POLYLINE
  8
0
 62
     5
 66
     1
 10
0
 20
0
 30
0.0
 70
     1
 40
0.141732
 41
0.141732
  0
VERTEX
  8
0
 10
970.407
 20
181.433
 30
0.0
 40
0.0499999
 41
0.0499999
  0
VERTEX
  8
0
 10
970.407
 20
187.147
 30
0.0
 40
0.0499999
 41
0.0499999
  0
VERTEX
  8
0
 10
976.122
 20
187.147
 30
0.0
 40
0.0499999
 41
0.0499999
  0
VERTEX
  8
0
 10
976.122
 20
175.718
 30
0.0
 40
0.0499999
 41
0.0499999
  0
VERTEX
  8
0
 10
970.407
 20
175.718
 30
0.0
 40
0.0499999
 41
0.0499999
  0
VERTEX
  8
0
 10
970.407
 20
181.433
 30
0.0
 40
0.0499999
 41
0.0499999
  0
SEQEND
 8
0
  0
POLYLINE
  8
0
 62
     5
 66
     1
 10
0
 20
0
 30
0.0
 70
     1
 40
0.141732
 41
0.141732
  0
VERTEX
  8
0
 10
970.407
 20
158.572
 30
0.0
 40
0.0499999
 41
0.0499999
  0
VERTEX
  8
0
 10
970.407
 20
164.287
 30
0.0
 40
0.0499999
 41
0.0499999
  0
VERTEX
  8
0
 10
976.122
 20
164.287
 30
0.0
 40
0.0499999
 41
0.0499999
  0
VERTEX
  8
0
 10
976.122
 20
152.858
 30
0.0
 40
0.0499999
 41
0.0499999
  0
VERTEX
  8
0
 10
970.407
 20
152.858
 30
0.0
 40
0.0499999
 41
0.0499999
  0
VERTEX
  8
0
 10
970.407
 20
158.572
 30
0.0
 40
0.0499999
 41
0.0499999
  0
SEQEND
 8
0
  0
POLYLINE
  8
0
 62
     5
 66
     1
 10
0
 20
0
 30
0.0
 70
     1
 40
0.141732
 41
0.141732
  0
VERTEX
  8
0
 10
970.407
 20
135.712
 30
0.0
 40
0.0499999
 41
0.0499999
  0
VERTEX
  8
0
 10
970.407
 20
141.428
 30
0.0
 40
0.0499999
 41
0.0499999
  0
VERTEX
  8
0
 10
976.122
 20
141.428
 30
0.0
 40
0.0499999
 41
0.0499999
  0
VERTEX
  8
0
 10
976.122
 20
129.997
 30
0.0
 40
0.0499999
 41
0.0499999
  0
VERTEX
  8
0
 10
970.407
 20
129.997
 30
0.0
 40
0.0499999
 41
0.0499999
  0
VERTEX
  8
0
 10
970.407
 20
135.712
 30
0.0
 40
0.0499999
 41
0.0499999
  0
SEQEND
 8
0
  0
POLYLINE
  8
0
 62
     5
 66
     1
 10
0
 20
0
 30
0.0
 70
     1
 40
0.141732
 41
0.141732
  0
VERTEX
  8
0
 10
970.407
 20
112.853
 30
0.0
 40
0.0499999
 41
0.0499999
  0
VERTEX
  8
0
 10
970.407
 20
118.568
 30
0.0
 40
0.0499999
 41
0.0499999
  0
VERTEX
  8
0
 10
976.122
 20
118.568
 30
0.0
 40
0.0499999
 41
0.0499999
  0
VERTEX
  8
0
 10
976.122
 20
107.137
 30
0.0
 40
0.0499999
 41
0.0499999
  0
VERTEX
  8
0
 10
970.407
 20
107.137
 30
0.0
 40
0.0499999
 41
0.0499999
  0
VERTEX
  8
0
 10
970.407
 20
112.853
 30
0.0
 40
0.0499999
 41
0.0499999
  0
SEQEND
 8
0
  0
POLYLINE
  8
0
 62
     5
 66
     1
 10
0
 20
0
 30
0.0
 70
     1
 40
0.141732
 41
0.141732
  0
VERTEX
  8
0
 10
970.407
 20
89.9929
 30
0.0
 40
0.0499999
 41
0.0499999
  0
VERTEX
  8
0
 10
970.407
 20
95.7076
 30
0.0
 40
0.0499999
 41
0.0499999
  0
VERTEX
  8
0
 10
976.122
 20
95.7076
 30
0.0
 40
0.0499999
 41
0.0499999
  0
VERTEX
  8
0
 10
976.122
 20
84.2779
 30
0.0
 40
0.0499999
 41
0.0499999
  0
VERTEX
  8
0
 10
970.407
 20
84.2779
 30
0.0
 40
0.0499999
 41
0.0499999
  0
VERTEX
  8
0
 10
970.407
 20
89.9929
 30
0.0
 40
0.0499999
 41
0.0499999
  0
SEQEND
 8
0
  0
POLYLINE
  8
0
 62
     5
 66
     1
 10
0
 20
0
 30
0.0
 70
     1
 40
0.141732
 41
0.141732
  0
VERTEX
  8
0
 10
970.407
 20
67.1326
 30
0.0
 40
0.0499999
 41
0.0499999
  0
VERTEX
  8
0
 10
970.407
 20
72.8472
 30
0.0
 40
0.0499999
 41
0.0499999
  0
VERTEX
  8
0
 10
976.122
 20
72.8472
 30
0.0
 40
0.0499999
 41
0.0499999
  0
VERTEX
  8
0
 10
976.122
 20
61.4179
 30
0.0
 40
0.0499999
 41
0.0499999
  0
VERTEX
  8
0
 10
970.407
 20
61.4179
 30
0.0
 40
0.0499999
 41
0.0499999
  0
VERTEX
  8
0
 10
970.407
 20
67.1326
 30
0.0
 40
0.0499999
 41
0.0499999
  0
SEQEND
 8
0
  0
POLYLINE
  8
0
 62
     5
 66
     1
 10
0
 20
0
 30
0.0
 70
     1
 40
0.141732
 41
0.141732
  0
VERTEX
  8
0
 10
970.407
 20
44.2722
 30
0.0
 40
0.0499999
 41
0.0499999
  0
VERTEX
  8
0
 10
970.407
 20
49.9868
 30
0.0
 40
0.0499999
 41
0.0499999
  0
VERTEX
  8
0
 10
976.122
 20
49.9868
 30
0.0
 40
0.0499999
 41
0.0499999
  0
VERTEX
  8
0
 10
976.122
 20
38.5576
 30
0.0
 40
0.0499999
 41
0.0499999
  0
VERTEX
  8
0
 10
970.407
 20
38.5576
 30
0.0
 40
0.0499999
 41
0.0499999
  0
VERTEX
  8
0
 10
970.407
 20
44.2722
 30
0.0
 40
0.0499999
 41
0.0499999
  0
SEQEND
 8
0
  0
TEXT
  8
0
 62
     1
 10
1085.04
 20
157.769
 30
0.0
 40
4.0005
  1
Panel
 50
0
  0
POLYLINE
  8
0
 62
     0
 66
     1
 10
0
 20
0
 30
0.0
 70
     1
 40
0.141732
 41
0.141732
  0
VERTEX
  8
0
 10
1040.66
 20
22.8575
 30
0.0
 40
0.0499999
 41
0.0499999
  0
VERTEX
  8
0
 10
1050.15
 20
22.8575
 30
0.0
 40
0.0499999
 41
0.0499999
  0
VERTEX
  8
0
 10
1050.15
 20
28.5722
 30
0.0
 40
0.0499999
 41
0.0499999
  0
VERTEX
  8
0
 10
1061.58
 20
28.5722
 30
0.0
 40
0.0499999
 41
0.0499999
  0
VERTEX
  8
0
 10
1061.58
 20
22.8575
 30
0.0
 40
0.0499999
 41
0.0499999
  0
VERTEX
  8
0
 10
1073.01
 20
22.8575
 30
0.0
 40
0.0499999
 41
0.0499999
  0
VERTEX
  8
0
 10
1073.01
 20
28.5722
 30
0.0
 40
0.0499999
 41
0.0499999
  0
VERTEX
  8
0
 10
1084.44
 20
28.5722
 30
0.0
 40
0.0499999
 41
0.0499999
  0
VERTEX
  8
0
 10
1084.44
 20
22.8575
 30
0.0
 40
0.0499999
 41
0.0499999
  0
VERTEX
  8
0
 10
1095.87
 20
22.8575
 30
0.0
 40
0.0499999
 41
0.0499999
  0
VERTEX
  8
0
 10
1095.87
 20
28.5722
 30
0.0
 40
0.0499999
 41
0.0499999
  0
VERTEX
  8
0
 10
1107.3
 20
28.5722
 30
0.0
 40
0.0499999
 41
0.0499999
  0
VERTEX
  8
0
 10
1107.3
 20
22.8575
 30
0.0
 40
0.0499999
 41
0.0499999
  0
VERTEX
  8
0
 10
1118.73
 20
22.8575
 30
0.0
 40
0.0499999
 41
0.0499999
  0
VERTEX
  8
0
 10
1118.73
 20
28.5722
 30
0.0
 40
0.0499999
 41
0.0499999
  0
VERTEX
  8
0
 10
1130.16
 20
28.5722
 30
0.0
 40
0.0499999
 41
0.0499999
  0
VERTEX
  8
0
 10
1130.16
 20
22.8575
 30
0.0
 40
0.0499999
 41
0.0499999
  0
VERTEX
  8
0
 10
1139.65
 20
22.8575
 30
0.0
 40
0.0499999
 41
0.0499999
  0
VERTEX
  8
0
 10
1145.36
 20
22.8575
 30
0.0
 40
0.0499999
 41
0.0499999
  0
VERTEX
  8
0
 10
1145.36
 20
28.5722
 30
0.0
 40
0.0499999
 41
0.0499999
  0
VERTEX
  8
0
 10
1145.36
 20
288.572
 30
0.0
 40
0.0499999
 41
0.0499999
  0
VERTEX
  8
0
 10
1145.36
 20
294.287
 30
0.0
 40
0.0499999
 41
0.0499999
  0
VERTEX
  8
0
 10
1139.65
 20
294.287
 30
0.0
 40
0.0499999
 41
0.0499999
  0
VERTEX
  8
0
 10
1130.16
 20
294.287
 30
0.0
 40
0.0499999
 41
0.0499999
  0
VERTEX
  8
0
 10
1130.16
 20
288.572
 30
0.0
 40
0.0499999
 41
0.0499999
  0
VERTEX
  8
0
 10
1118.73
 20
288.572
 30
0.0
 40
0.0499999
 41
0.0499999
  0
VERTEX
  8
0
 10
1118.73
 20
294.287
 30
0.0
 40
0.0499999
 41
0.0499999
  0
VERTEX
  8
0
 10
1107.3
 20
294.287
 30
0.0
 40
0.0499999
 41
0.0499999
  0
VERTEX
  8
0
 10
1107.3
 20
288.572
 30
0.0
 40
0.0499999
 41
0.0499999
  0
VERTEX
  8
0
 10
1095.87
 20
288.572
 30
0.0
 40
0.0499999
 41
0.0499999
  0
VERTEX
  8
0
 10
1095.87
 20
294.287
 30
0.0
 40
0.0499999
 41
0.0499999
  0
VERTEX
  8
0
 10
1084.44
 20
294.287
 30
0.0
 40
0.0499999
 41
0.0499999
  0
VERTEX
  8
0
 10
1084.44
 20
288.572
 30
0.0
 40
0.0499999
 41
0.0499999
  0
VERTEX
  8
0
 10
1073.01
 20
288.572
 30
0.0
 40
0.0499999
 41
0.0499999
  0
VERTEX
  8
0
 10
1073.01
 20
294.287
 30
0.0
 40
0.0499999
 41
0.0499999
  0
VERTEX
  8
0
 10
1061.58
 20
294.287
 30
0.0
 40
0.0499999
 41
0.0499999
  0
VERTEX
  8
0
 10
1061.58
 20
288.572
 30
0.0
 40
0.0499999
 41
0.0499999
  0
VERTEX
  8
0
 10
1050.15
 20
288.572
 30
0.0
 40
0.0499999
 41
0.0499999
  0
VERTEX
  8
0
 10
1050.15
 20
294.287
 30
0.0
 40
0.0499999
 41
0.0499999
  0
VERTEX
  8
0
 10
1040.66
 20
294.287
 30
0.0
 40
0.0499999
 41
0.0499999
  0
VERTEX
  8
0
 10
1034.94
 20
294.287
 30
0.0
 40
0.0499999
 41
0.0499999
  0
VERTEX
  8
0
 10
1034.94
 20
288.572
 30
0.0
 40
0.0499999
 41
0.0499999
  0
VERTEX
  8
0
 10
1034.94
 20
28.5722
 30
0.0
 40
0.0499999
 41
0.0499999
  0
VERTEX
  8
0
 10
1034.94
 20
22.8575
 30
0.0
 40
0.0499999
 41
0.0499999
  0
VERTEX
  8
0
 10
1040.66
 20
22.8575
 30
0.0
 40
0.0499999
 41
0.0499999
  0
SEQEND
 8
0
  0
TEXT
  8
0
 62
     1
 10
1260.61
 20
157.769
 30
0.0
 40
4.0005
  1
Top
 50
0
  0
POLYLINE
  8
0
 62
     0
 66
     1
 10
0
 20
0
 30
0.0
 70
     1
 40
0.141732
 41
0.141732
  0
VERTEX
  8
0
 10
1148.22
 20
22.8575
 30
0.0
 40
0.0499999
 41
0.0499999
  0
VERTEX
  8
0
 10
1152.62
 20
22.8575
 30
0.0
 40
0.0499999
 41
0.0499999
  0
VERTEX
  8
0
 10
1152.62
 20
28.5722
 30
0.0
 40
0.0499999
 41
0.0499999
  0
VERTEX
  8
0
 10
1164.05
 20
28.5722
 30
0.0
 40
0.0499999
 41
0.0499999
  0
VERTEX
  8
0
 10
1164.05
 20
22.8575
 30
0.0
 40
0.0499999
 41
0.0499999
  0
VERTEX
  8
0
 10
1175.48
 20
22.8575
 30
0.0
 40
0.0499999
 41
0.0499999
  0
VERTEX
  8
0
 10
1175.48
 20
28.5722
 30
0.0
 40
0.0499999
 41
0.0499999
  0
VERTEX
  8
0
 10
1186.91
 20
28.5722
 30
0.0
 40
0.0499999
 41
0.0499999
  0
VERTEX
  8
0
 10
1186.91
 20
22.8575
 30
0.0
 40
0.0499999
 41
0.0499999
  0
VERTEX
  8
0
 10
1198.34
 20
22.8575
 30
0.0
 40
0.0499999
 41
0.0499999
  0
VERTEX
  8
0
 10
1198.34
 20
28.5722
 30
0.0
 40
0.0499999
 41
0.0499999
  0
VERTEX
  8
0
 10
1209.77
 20
28.5722
 30
0.0
 40
0.0499999
 41
0.0499999
  0
VERTEX
  8
0
 10
1209.77
 20
22.8575
 30
0.0
 40
0.0499999
 41
0.0499999
  0
VERTEX
  8
0
 10
1221.2
 20
22.8575
 30
0.0
 40
0.0499999
 41
0.0499999
  0
VERTEX
  8
0
 10
1221.2
 20
28.5722
 30
0.0
 40
0.0499999
 41
0.0499999
  0
VERTEX
  8
0
 10
1232.63
 20
28.5722
 30
0.0
 40
0.0499999
 41
0.0499999
  0
VERTEX
  8
0
 10
1232.63
 20
22.8575
 30
0.0
 40
0.0499999
 41
0.0499999
  0
VERTEX
  8
0
 10
1244.06
 20
22.8575
 30
0.0
 40
0.0499999
 41
0.0499999
  0
VERTEX
  8
0
 10
1244.06
 20
28.5722
 30
0.0
 40
0.0499999
 41
0.0499999
  0
VERTEX
  8
0
 10
1255.49
 20
28.5722
 30
0.0
 40
0.0499999
 41
0.0499999
  0
VERTEX
  8
0
 10
1255.49
 20
22.8575
 30
0.0
 40
0.0499999
 41
0.0499999
  0
VERTEX
  8
0
 10
1266.92
 20
22.8575
 30
0.0
 40
0.0499999
 41
0.0499999
  0
VERTEX
  8
0
 10
1266.92
 20
28.5722
 30
0.0
 40
0.0499999
 41
0.0499999
  0
VERTEX
  8
0
 10
1278.35
 20
28.5722
 30
0.0
 40
0.0499999
 41
0.0499999
  0
VERTEX
  8
0
 10
1278.35
 20
22.8575
 30
0.0
 40
0.0499999
 41
0.0499999
  0
VERTEX
  8
0
 10
1289.78
 20
22.8575
 30
0.0
 40
0.0499999
 41
0.0499999
  0
VERTEX
  8
0
 10
1289.78
 20
28.5722
 30
0.0
 40
0.0499999
 41
0.0499999
  0
VERTEX
  8
0
 10
1301.21
 20
28.5722
 30
0.0
 40
0.0499999
 41
0.0499999
  0
VERTEX
  8
0
 10
1301.21
 20
22.8575
 30
0.0
 40
0.0499999
 41
0.0499999
  0
VERTEX
  8
0
 10
1312.64
 20
22.8575
 30
0.0
 40
0.0499999
 41
0.0499999
  0
VERTEX
  8
0
 10
1312.64
 20
28.5722
 30
0.0
 40
0.0499999
 41
0.0499999
  0
VERTEX
  8
0
 10
1324.07
 20
28.5722
 30
0.0
 40
0.0499999
 41
0.0499999
  0
VERTEX
  8
0
 10
1324.07
 20
22.8575
 30
0.0
 40
0.0499999
 41
0.0499999
  0
VERTEX
  8
0
 10
1335.5
 20
22.8575
 30
0.0
 40
0.0499999
 41
0.0499999
  0
VERTEX
  8
0
 10
1335.5
 20
28.5722
 30
0.0
 40
0.0499999
 41
0.0499999
  0
VERTEX
  8
0
 10
1346.93
 20
28.5722
 30
0.0
 40
0.0499999
 41
0.0499999
  0
VERTEX
  8
0
 10
1346.93
 20
22.8575
 30
0.0
 40
0.0499999
 41
0.0499999
  0
VERTEX
  8
0
 10
1358.36
 20
22.8575
 30
0.0
 40
0.0499999
 41
0.0499999
  0
VERTEX
  8
0
 10
1358.36
 20
28.5722
 30
0.0
 40
0.0499999
 41
0.0499999
  0
VERTEX
  8
0
 10
1369.79
 20
28.5722
 30
0.0
 40
0.0499999
 41
0.0499999
  0
VERTEX
  8
0
 10
1369.79
 20
22.8575
 30
0.0
 40
0.0499999
 41
0.0499999
  0
VERTEX
  8
0
 10
1374.18
 20
22.8575
 30
0.0
 40
0.0499999
 41
0.0499999
  0
VERTEX
  8
0
 10
1379.9
 20
22.8575
 30
0.0
 40
0.0499999
 41
0.0499999
  0
VERTEX
  8
0
 10
1379.9
 20
28.5722
 30
0.0
 40
0.0499999
 41
0.0499999
  0
VERTEX
  8
0
 10
1379.9
 20
288.572
 30
0.0
 40
0.0499999
 41
0.0499999
  0
VERTEX
  8
0
 10
1379.9
 20
294.287
 30
0.0
 40
0.0499999
 41
0.0499999
  0
VERTEX
  8
0
 10
1374.18
 20
294.287
 30
0.0
 40
0.0499999
 41
0.0499999
  0
VERTEX
  8
0
 10
1369.79
 20
294.287
 30
0.0
 40
0.0499999
 41
0.0499999
  0
VERTEX
  8
0
 10
1369.79
 20
288.572
 30
0.0
 40
0.0499999
 41
0.0499999
  0
VERTEX
  8
0
 10
1358.36
 20
288.572
 30
0.0
 40
0.0499999
 41
0.0499999
  0
VERTEX
  8
0
 10
1358.36
 20
294.287
 30
0.0
 40
0.0499999
 41
0.0499999
  0
VERTEX
  8
0
 10
1346.93
 20
294.287
 30
0.0
 40
0.0499999
 41
0.0499999
  0
VERTEX
  8
0
 10
1346.93
 20
288.572
 30
0.0
 40
0.0499999
 41
0.0499999
  0
VERTEX
  8
0
 10
1335.5
 20
288.572
 30
0.0
 40
0.0499999
 41
0.0499999
  0
VERTEX
  8
0
 10
1335.5
 20
294.287
 30
0.0
 40
0.0499999
 41
0.0499999
  0
VERTEX
  8
0
 10
1324.07
 20
294.287
 30
0.0
 40
0.0499999
 41
0.0499999
  0
VERTEX
  8
0
 10
1324.07
 20
288.572
 30
0.0
 40
0.0499999
 41
0.0499999
  0
VERTEX
  8
0
 10
1312.64
 20
288.572
 30
0.0
 40
0.0499999
 41
0.0499999
  0
VERTEX
  8
0
 10
1312.64
 20
294.287
 30
0.0
 40
0.0499999
 41
0.0499999
  0
VERTEX
  8
0
 10
1301.21
 20
294.287
 30
0.0
 40
0.0499999
 41
0.0499999
  0
VERTEX
  8
0
 10
1301.21
 20
288.572
 30
0.0
 40
0.0499999
 41
0.0499999
  0
VERTEX
  8
0
 10
1289.78
 20
288.572
 30
0.0
 40
0.0499999
 41
0.0499999
  0
VERTEX
  8
0
 10
1289.78
 20
294.287
 30
0.0
 40
0.0499999
 41
0.0499999
  0
VERTEX
  8
0
 10
1278.35
 20
294.287
 30
0.0
 40
0.0499999
 41
0.0499999
  0
VERTEX
  8
0
 10
1278.35
 20
288.572
 30
0.0
 40
0.0499999
 41
0.0499999
  0
VERTEX
  8
0
 10
1266.92
 20
288.572
 30
0.0
 40
0.0499999
 41
0.0499999
  0
VERTEX
  8
0
 10
1266.92
 20
294.287
 30
0.0
 40
0.0499999
 41
0.0499999
  0
VERTEX
  8
0
 10
1255.49
 20
294.287
 30
0.0
 40
0.0499999
 41
0.0499999
  0
VERTEX
  8
0
 10
1255.49
 20
288.572
 30
0.0
 40
0.0499999
 41
0.0499999
  0
VERTEX
  8
0
 10
1244.06
 20
288.572
 30
0.0
 40
0.0499999
 41
0.0499999
  0
VERTEX
  8
0
 10
1244.06
 20
294.287
 30
0.0
 40
0.0499999
 41
0.0499999
  0
VERTEX
  8
0
 10
1232.63
 20
294.287
 30
0.0
 40
0.0499999
 41
0.0499999
  0
VERTEX
  8
0
 10
1232.63
 20
288.572
 30
0.0
 40
0.0499999
 41
0.0499999
  0
VERTEX
  8
0
 10
1221.2
 20
288.572
 30
0.0
 40
0.0499999
 41
0.0499999
  0
VERTEX
  8
0
 10
1221.2
 20
294.287
 30
0.0
 40
0.0499999
 41
0.0499999
  0
VERTEX
  8
0
 10
1209.77
 20
294.287
 30
0.0
 40
0.0499999
 41
0.0499999
  0
VERTEX
  8
0
 10
1209.77
 20
288.572
 30
0.0
 40
0.0499999
 41
0.0499999
  0
VERTEX
  8
0
 10
1198.34
 20
288.572
 30
0.0
 40
0.0499999
 41
0.0499999
  0
VERTEX
  8
0
 10
1198.34
 20
294.287
 30
0.0
 40
0.0499999
 41
0.0499999
  0
VERTEX
  8
0
 10
1186.91
 20
294.287
 30
0.0
 40
0.0499999
 41
0.0499999
  0
VERTEX
  8
0
 10
1186.91
 20
288.572
 30
0.0
 40
0.0499999
 41
0.0499999
  0
VERTEX
  8
0
 10
1175.48
 20
288.572
 30
0.0
 40
0.0499999
 41
0.0499999
  0
VERTEX
  8
0
 10
1175.48
 20
294.287
 30
0.0
 40
0.0499999
 41
0.0499999
  0
VERTEX
  8
0
 10
1164.05
 20
294.287
 30
0.0
 40
0.0499999
 41
0.0499999
  0
VERTEX
  8
0
 10
1164.05
 20
288.572
 30
0.0
 40
0.0499999
 41
0.0499999
  0
VERTEX
  8
0
 10
1152.62
 20
288.572
 30
0.0
 40
0.0499999
 41
0.0499999
  0
VERTEX
  8
0
 10
1152.62
 20
294.287
 30
0.0
 40
0.0499999
 41
0.0499999
  0
VERTEX
  8
0
 10
1148.22
 20
294.287
 30
0.0
 40
0.0499999
 41
0.0499999
  0
VERTEX
  8
0
 10
1148.22
 20
288.572
 30
0.0
 40
0.0499999
 41
0.0499999
  0
VERTEX
  8
0
 10
1148.22
 20
28.5722
 30
0.0
 40
0.0499999
 41
0.0499999
  0
VERTEX
  8
0
 10
1148.22
 20
22.8575
 30
0.0
 40
0.0499999
 41
0.0499999
  0
SEQEND
 8
0
  0
TEXT
  8
0
 62
     1
 10
1450.29
 20
157.769
 30
0.0
 40
4.0005
  1
Back Wall
 50
0
  0
POLYLINE
  8
0
 62
     0
 66
     1
 10
0
 20
0
 30
0.0
 70
     1
 40
0.141732
 41
0.141732
  0
VERTEX
  8
0
 10
1382.75
 20
22.8575
 30
0.0
 40
0.0499999
 41
0.0499999
  0
VERTEX
  8
0
 10
1396.32
 20
22.8575
 30
0.0
 40
0.0499999
 41
0.0499999
  0
VERTEX
  8
0
 10
1396.32
 20
28.5722
 30
0.0
 40
0.0499999
 41
0.0499999
  0
VERTEX
  8
0
 10
1407.75
 20
28.5722
 30
0.0
 40
0.0499999
 41
0.0499999
  0
VERTEX
  8
0
 10
1407.75
 20
22.8575
 30
0.0
 40
0.0499999
 41
0.0499999
  0
VERTEX
  8
0
 10
1419.18
 20
22.8575
 30
0.0
 40
0.0499999
 41
0.0499999
  0
VERTEX
  8
0
 10
1419.18
 20
28.5722
 30
0.0
 40
0.0499999
 41
0.0499999
  0
VERTEX
  8
0
 10
1430.61
 20
28.5722
 30
0.0
 40
0.0499999
 41
0.0499999
  0
VERTEX
  8
0
 10
1430.61
 20
22.8575
 30
0.0
 40
0.0499999
 41
0.0499999
  0
VERTEX
  8
0
 10
1442.04
 20
22.8575
 30
0.0
 40
0.0499999
 41
0.0499999
  0
VERTEX
  8
0
 10
1442.04
 20
28.5722
 30
0.0
 40
0.0499999
 41
0.0499999
  0
VERTEX
  8
0
 10
1453.47
 20
28.5722
 30
0.0
 40
0.0499999
 41
0.0499999
  0
VERTEX
  8
0
 10
1453.47
 20
22.8575
 30
0.0
 40
0.0499999
 41
0.0499999
  0
VERTEX
  8
0
 10
1464.9
 20
22.8575
 30
0.0
 40
0.0499999
 41
0.0499999
  0
VERTEX
  8
0
 10
1464.9
 20
28.5722
 30
0.0
 40
0.0499999
 41
0.0499999
  0
VERTEX
  8
0
 10
1476.33
 20
28.5722
 30
0.0
 40
0.0499999
 41
0.0499999
  0
VERTEX
  8
0
 10
1476.33
 20
22.8575
 30
0.0
 40
0.0499999
 41
0.0499999
  0
VERTEX
  8
0
 10
1487.76
 20
22.8575
 30
0.0
 40
0.0499999
 41
0.0499999
  0
VERTEX
  8
0
 10
1487.76
 20
28.5722
 30
0.0
 40
0.0499999
 41
0.0499999
  0
VERTEX
  8
0
 10
1499.19
 20
28.5722
 30
0.0
 40
0.0499999
 41
0.0499999
  0
VERTEX
  8
0
 10
1499.19
 20
22.8575
 30
0.0
 40
0.0499999
 41
0.0499999
  0
VERTEX
  8
0
 10
1510.62
 20
22.8575
 30
0.0
 40
0.0499999
 41
0.0499999
  0
VERTEX
  8
0
 10
1510.62
 20
28.5722
 30
0.0
 40
0.0499999
 41
0.0499999
  0
VERTEX
  8
0
 10
1522.05
 20
28.5722
 30
0.0
 40
0.0499999
 41
0.0499999
  0
VERTEX
  8
0
 10
1522.05
 20
22.8575
 30
0.0
 40
0.0499999
 41
0.0499999
  0
VERTEX
  8
0
 10
1535.61
 20
22.8575
 30
0.0
 40
0.0499999
 41
0.0499999
  0
VERTEX
  8
0
 10
1535.61
 20
28.5722
 30
0.0
 40
0.0499999
 41
0.0499999
  0
VERTEX
  8
0
 10
1535.61
 20
51.4325
 30
0.0
 40
0.0499999
 41
0.0499999
  0
VERTEX
  8
0
 10
1535.61
 20
51.8072
 30
0.0
 40
0.0499999
 41
0.0499999
  0
VERTEX
  8
0
 10
1535.51
 20
52.9276
 30
0.0
 40
0.0499999
 41
0.0499999
  0
VERTEX
  8
0
 10
1535.22
 20
54.3913
 30
0.0
 40
0.0499999
 41
0.0499999
  0
VERTEX
  8
0
 10
1534.74
 20
55.8038
 30
0.0
 40
0.0499999
 41
0.0499999
  0
VERTEX
  8
0
 10
1534.27
 20
56.8247
 30
0.0
 40
0.0499999
 41
0.0499999
  0
VERTEX
  8
0
 10
1534.08
 20
57.1472
 30
0.0
 40
0.0499999
 41
0.0499999
  0
VERTEX
  8
0
 10
1533.99
 20
57.3098
 30
0.0
 40
0.0499999
 41
0.0499999
  0
VERTEX
  8
0
 10
1533.68
 20
57.7854
 30
0.0
 40
0.0499999
 41
0.0499999
  0
VERTEX
  8
0
 10
1533.25
 20
58.3928
 30
0.0
 40
0.0499999
 41
0.0499999
  0
VERTEX
  8
0
 10
1532.77
 20
58.9703
 30
0.0
 40
0.0499999
 41
0.0499999
  0
VERTEX
  8
0
 10
1532.27
 20
59.5147
 30
0.0
 40
0.0499999
 41
0.0499999
  0
VERTEX
  8
0
 10
1531.72
 20
60.0244
 30
0.0
 40
0.0499999
 41
0.0499999
  0
VERTEX
  8
0
 10
1531.14
 20
60.4986
 30
0.0
 40
0.0499999
 41
0.0499999
  0
VERTEX
  8
0
 10
1530.53
 20
60.9353
 30
0.0
 40
0.0499999
 41
0.0499999
  0
VERTEX
  8
0
 10
1530.06
 20
61.2387
 30
0.0
 40
0.0499999
 41
0.0499999
  0
VERTEX
  8
0
 10
1529.9
 20
61.3311
 30
0.0
 40
0.0499999
 41
0.0499999
  0
VERTEX
  8
0
 10
1529.74
 20
61.4246
 30
0.0
 40
0.0499999
 41
0.0499999
  0
VERTEX
  8
0
 10
1529.26
 20
61.728
 30
0.0
 40
0.0499999
 41
0.0499999
  0
VERTEX
  8
0
 10
1528.65
 20
62.1647
 30
0.0
 40
0.0499999
 41
0.0499999
  0
VERTEX
  8
0
 10
1528.07
 20
62.6389
 30
0.0
 40
0.0499999
 41
0.0499999
  0
VERTEX
  8
0
 10
1527.53
 20
63.1486
 30
0.0
 40
0.0499999
 41
0.0499999
  0
VERTEX
  8
0
 10
1527.02
 20
63.693
 30
0.0
 40
0.0499999
 41
0.0499999
  0
VERTEX
  8
0
 10
1526.55
 20
64.2705
 30
0.0
 40
0.0499999
 41
0.0499999
  0
VERTEX
  8
0
 10
1526.11
 20
64.878
 30
0.0
 40
0.0499999
 41
0.0499999
  0
VERTEX
  8
0
 10
1525.81
 20
65.3535
 30
0.0
 40
0.0499999
 41
0.0499999
  0
VERTEX
  8
0
 10
1525.71
 20
65.5147
 30
0.0
 40
0.0499999
 41
0.0499999
  0
VERTEX
  8
0
 10
1525.53
 20
65.8386
 30
0.0
 40
0.0499999
 41
0.0499999
  0
VERTEX
  8
0
 10
1525.05
 20
66.8595
 30
0.0
 40
0.0499999
 41
0.0499999
  0
VERTEX
  8
0
 10
1524.57
 20
68.272
 30
0.0
 40
0.0499999
 41
0.0499999
  0
VERTEX
  8
0
 10
1524.28
 20
69.7357
 30
0.0
 40
0.0499999
 41
0.0499999
  0
VERTEX
  8
0
 10
1524.18
 20
70.8561
 30
0.0
 40
0.0499999
 41
0.0499999
  0
VERTEX
  8
0
 10
1524.18
 20
71.2294
 30
0.0
 40
0.0499999
 41
0.0499999
  0
VERTEX
  8
0
 10
1524.18
 20
245.915
 30
0.0
 40
0.0499999
 41
0.0499999
  0
VERTEX
  8
0
 10
1524.18
 20
246.29
 30
0.0
 40
0.0499999
 41
0.0499999
  0
VERTEX
  8
0
 10
1524.28
 20
247.41
 30
0.0
 40
0.0499999
 41
0.0499999
  0
VERTEX
  8
0
 10
1524.57
 20
248.874
 30
0.0
 40
0.0499999
 41
0.0499999
  0
VERTEX
  8
0
 10
1525.05
 20
250.286
 30
0.0
 40
0.0499999
 41
0.0499999
  0
VERTEX
  8
0
 10
1525.53
 20
251.307
 30
0.0
 40
0.0499999
 41
0.0499999
  0
VERTEX
  8
0
 10
1525.71
 20
251.63
 30
0.0
 40
0.0499999
 41
0.0499999
  0
VERTEX
  8
0
 10
1525.81
 20
251.792
 30
0.0
 40
0.0499999
 41
0.0499999
  0
VERTEX
  8
0
 10
1526.11
 20
252.268
 30
0.0
 40
0.0499999
 41
0.0499999
  0
VERTEX
  8
0
 10
1526.55
 20
252.876
 30
0.0
 40
0.0499999
 41
0.0499999
  0
VERTEX
  8
0
 10
1527.02
 20
253.453
 30
0.0
 40
0.0499999
 41
0.0499999
  0
VERTEX
  8
0
 10
1527.53
 20
253.997
 30
0.0
 40
0.0499999
 41
0.0499999
  0
VERTEX
  8
0
 10
1528.07
 20
254.507
 30
0.0
 40
0.0499999
 41
0.0499999
  0
VERTEX
  8
0
 10
1528.65
 20
254.981
 30
0.0
 40
0.0499999
 41
0.0499999
  0
VERTEX
  8
0
 10
1529.26
 20
255.418
 30
0.0
 40
0.0499999
 41
0.0499999
  0
VERTEX
  8
0
 10
1529.74
 20
255.72
 30
0.0
 40
0.0499999
 41
0.0499999
  0
VERTEX
  8
0
 10
1529.9
 20
255.814
 30
0.0
 40
0.0499999
 41
0.0499999
  0
VERTEX
  8
0
 10
1530.06
 20
255.907
 30
0.0
 40
0.0499999
 41
0.0499999
  0
VERTEX
  8
0
 10
1530.53
 20
256.211
 30
0.0
 40
0.0499999
 41
0.0499999
  0
VERTEX
  8
0
 10
1531.14
 20
256.647
 30
0.0
 40
0.0499999
 41
0.0499999
  0
VERTEX
  8
0
 10
1531.72
 20
257.121
 30
0.0
 40
0.0499999
 41
0.0499999
  0
VERTEX
  8
0
 10
1532.27
 20
257.631
 30
0.0
 40
0.0499999
 41
0.0499999
  0
VERTEX
  8
0
 10
1532.77
 20
258.175
 30
0.0
 40
0.0499999
 41
0.0499999
  0
VERTEX
  8
0
 10
1533.25
 20
258.753
 30
0.0
 40
0.0499999
 41
0.0499999
  0
VERTEX
  8
0
 10
1533.68
 20
259.36
 30
0.0
 40
0.0499999
 41
0.0499999
  0
VERTEX
  8
0
 10
1533.99
 20
259.836
 30
0.0
 40
0.0499999
 41
0.0499999
  0
VERTEX
  8
0
 10
1534.08
 20
259.997
 30
0.0
 40
0.0499999
 41
0.0499999
  0
VERTEX
  8
0
 10
1534.27
 20
260.321
 30
0.0
 40
0.0499999
 41
0.0499999
  0
VERTEX
  8
0
 10
1534.74
 20
261.342
 30
0.0
 40
0.0499999
 41
0.0499999
  0
VERTEX
  8
0
 10
1535.22
 20
262.755
 30
0.0
 40
0.0499999
 41
0.0499999
  0
VERTEX
  8
0
 10
1535.51
 20
264.218
 30
0.0
 40
0.0499999
 41
0.0499999
  0
VERTEX
  8
0
 10
1535.61
 20
265.339
 30
0.0
 40
0.0499999
 41
0.0499999
  0
VERTEX
  8
0
 10
1535.61
 20
265.712
 30
0.0
 40
0.0499999
 41
0.0499999
  0
VERTEX
  8
0
 10
1535.61
 20
288.572
 30
0.0
 40
0.0499999
 41
0.0499999
  0
VERTEX
  8
0
 10
1535.61
 20
294.287
 30
0.0
 40
0.0499999
 41
0.0499999
  0
VERTEX
  8
0
 10
1522.05
 20
294.287
 30
0.0
 40
0.0499999
 41
0.0499999
  0
VERTEX
  8
0
 10
1522.05
 20
288.572
 30
0.0
 40
0.0499999
 41
0.0499999
  0
VERTEX
  8
0
 10
1510.62
 20
288.572
 30
0.0
 40
0.0499999
 41
0.0499999
  0
VERTEX
  8
0
 10
1510.62
 20
294.287
 30
0.0
 40
0.0499999
 41
0.0499999
  0
VERTEX
  8
0
 10
1499.19
 20
294.287
 30
0.0
 40
0.0499999
 41
0.0499999
  0
VERTEX
  8
0
 10
1499.19
 20
288.572
 30
0.0
 40
0.0499999
 41
0.0499999
  0
VERTEX
  8
0
 10
1487.76
 20
288.572
 30
0.0
 40
0.0499999
 41
0.0499999
  0
VERTEX
  8
0
 10
1487.76
 20
294.287
 30
0.0
 40
0.0499999
 41
0.0499999
  0
VERTEX
  8
0
 10
1476.33
 20
294.287
 30
0.0
 40
0.0499999
 41
0.0499999
  0
VERTEX
  8
0
 10
1476.33
 20
288.572
 30
0.0
 40
0.0499999
 41
0.0499999
  0
VERTEX
  8
0
 10
1464.9
 20
288.572
 30
0.0
 40
0.0499999
 41
0.0499999
  0
VERTEX
  8
0
 10
1464.9
 20
294.287
 30
0.0
 40
0.0499999
 41
0.0499999
  0
VERTEX
  8
0
 10
1453.47
 20
294.287
 30
0.0
 40
0.0499999
 41
0.0499999
  0
VERTEX
  8
0
 10
1453.47
 20
288.572
 30
0.0
 40
0.0499999
 41
0.0499999
  0
VERTEX
  8
0
 10
1442.04
 20
288.572
 30
0.0
 40
0.0499999
 41
0.0499999
  0
VERTEX
  8
0
 10
1442.04
 20
294.287
 30
0.0
 40
0.0499999
 41
0.0499999
  0
VERTEX
  8
0
 10
1430.61
 20
294.287
 30
0.0
 40
0.0499999
 41
0.0499999
  0
VERTEX
  8
0
 10
1430.61
 20
288.572
 30
0.0
 40
0.0499999
 41
0.0499999
  0
VERTEX
  8
0
 10
1419.18
 20
288.572
 30
0.0
 40
0.0499999
 41
0.0499999
  0
VERTEX
  8
0
 10
1419.18
 20
294.287
 30
0.0
 40
0.0499999
 41
0.0499999
  0
VERTEX
  8
0
 10
1407.75
 20
294.287
 30
0.0
 40
0.0499999
 41
0.0499999
  0
VERTEX
  8
0
 10
1407.75
 20
288.572
 30
0.0
 40
0.0499999
 41
0.0499999
  0
VERTEX
  8
0
 10
1396.32
 20
288.572
 30
0.0
 40
0.0499999
 41
0.0499999
  0
VERTEX
  8
0
 10
1396.32
 20
294.287
 30
0.0
 40
0.0499999
 41
0.0499999
  0
VERTEX
  8
0
 10
1382.75
 20
294.287
 30
0.0
 40
0.0499999
 41
0.0499999
  0
VERTEX
  8
0
 10
1382.75
 20
288.572
 30
0.0
 40
0.0499999
 41
0.0499999
  0
VERTEX
  8
0
 10
1382.75
 20
28.5722
 30
0.0
 40
0.0499999
 41
0.0499999
  0
VERTEX
  8
0
 10
1382.75
 20
22.8575
 30
0.0
 40
0.0499999
 41
0.0499999
  0
SEQEND
 8
0
  0
POLYLINE
  8
0
 62
     5
 66
     1
 10
0
 20
0
 30
0.0
 70
     1
 40
0.141732
 41
0.141732
  0
VERTEX
  8
0
 10
1518.47
 20
44.2722
 30
0.0
 40
0.0499999
 41
0.0499999
  0
VERTEX
  8
0
 10
1518.47
 20
38.5576
 30
0.0
 40
0.0499999
 41
0.0499999
  0
VERTEX
  8
0
 10
1512.75
 20
38.5576
 30
0.0
 40
0.0499999
 41
0.0499999
  0
VERTEX
  8
0
 10
1512.75
 20
49.9868
 30
0.0
 40
0.0499999
 41
0.0499999
  0
VERTEX
  8
0
 10
1518.47
 20
49.9868
 30
0.0
 40
0.0499999
 41
0.0499999
  0
VERTEX
  8
0
 10
1518.47
 20
44.2722
 30
0.0
 40
0.0499999
 41
0.0499999
  0
SEQEND
 8
0
  0
POLYLINE
  8
0
 62
     5
 66
     1
 10
0
 20
0
 30
0.0
 70
     1
 40
0.141732
 41
0.141732
  0
VERTEX
  8
0
 10
1518.47
 20
67.1326
 30
0.0
 40
0.0499999
 41
0.0499999
  0
VERTEX
  8
0
 10
1518.47
 20
61.4179
 30
0.0
 40
0.0499999
 41
0.0499999
  0
VERTEX
  8
0
 10
1512.75
 20
61.4179
 30
0.0
 40
0.0499999
 41
0.0499999
  0
VERTEX
  8
0
 10
1512.75
 20
72.8472
 30
0.0
 40
0.0499999
 41
0.0499999
  0
VERTEX
  8
0
 10
1518.47
 20
72.8472
 30
0.0
 40
0.0499999
 41
0.0499999
  0
VERTEX
  8
0
 10
1518.47
 20
67.1326
 30
0.0
 40
0.0499999
 41
0.0499999
  0
SEQEND
 8
0
  0
POLYLINE
  8
0
 62
     5
 66
     1
 10
0
 20
0
 30
0.0
 70
     1
 40
0.141732
 41
0.141732
  0
VERTEX
  8
0
 10
1518.47
 20
89.9929
 30
0.0
 40
0.0499999
 41
0.0499999
  0
VERTEX
  8
0
 10
1518.47
 20
84.2779
 30
0.0
 40
0.0499999
 41
0.0499999
  0
VERTEX
  8
0
 10
1512.75
 20
84.2779
 30
0.0
 40
0.0499999
 41
0.0499999
  0
VERTEX
  8
0
 10
1512.75
 20
95.7076
 30
0.0
 40
0.0499999
 41
0.0499999
  0
VERTEX
  8
0
 10
1518.47
 20
95.7076
 30
0.0
 40
0.0499999
 41
0.0499999
  0
VERTEX
  8
0
 10
1518.47
 20
89.9929
 30
0.0
 40
0.0499999
 41
0.0499999
  0
SEQEND
 8
0
  0
POLYLINE
  8
0
 62
     5
 66
     1
 10
0
 20
0
 30
0.0
 70
     1
 40
0.141732
 41
0.141732
  0
VERTEX
  8
0
 10
1518.47
 20
112.853
 30
0.0
 40
0.0499999
 41
0.0499999
  0
VERTEX
  8
0
 10
1518.47
 20
107.137
 30
0.0
 40
0.0499999
 41
0.0499999
  0
VERTEX
  8
0
 10
1512.75
 20
107.137
 30
0.0
 40
0.0499999
 41
0.0499999
  0
VERTEX
  8
0
 10
1512.75
 20
118.568
 30
0.0
 40
0.0499999
 41
0.0499999
  0
VERTEX
  8
0
 10
1518.47
 20
118.568
 30
0.0
 40
0.0499999
 41
0.0499999
  0
VERTEX
  8
0
 10
1518.47
 20
112.853
 30
0.0
 40
0.0499999
 41
0.0499999
  0
SEQEND
 8
0
  0
POLYLINE
  8
0
 62
     5
 66
     1
 10
0
 20
0
 30
0.0
 70
     1
 40
0.141732
 41
0.141732
  0
VERTEX
  8
0
 10
1518.47
 20
135.712
 30
0.0
 40
0.0499999
 41
0.0499999
  0
VERTEX
  8
0
 10
1518.47
 20
129.997
 30
0.0
 40
0.0499999
 41
0.0499999
  0
VERTEX
  8
0
 10
1512.75
 20
129.997
 30
0.0
 40
0.0499999
 41
0.0499999
  0
VERTEX
  8
0
 10
1512.75
 20
141.428
 30
0.0
 40
0.0499999
 41
0.0499999
  0
VERTEX
  8
0
 10
1518.47
 20
141.428
 30
0.0
 40
0.0499999
 41
0.0499999
  0
VERTEX
  8
0
 10
1518.47
 20
135.712
 30
0.0
 40
0.0499999
 41
0.0499999
  0
SEQEND
 8
0
  0
POLYLINE
  8
0
 62
     5
 66
     1
 10
0
 20
0
 30
0.0
 70
     1
 40
0.141732
 41
0.141732
  0
VERTEX
  8
0
 10
1518.47
 20
158.572
 30
0.0
 40
0.0499999
 41
0.0499999
  0
VERTEX
  8
0
 10
1518.47
 20
152.858
 30
0.0
 40
0.0499999
 41
0.0499999
  0
VERTEX
  8
0
 10
1512.75
 20
152.858
 30
0.0
 40
0.0499999
 41
0.0499999
  0
VERTEX
  8
0
 10
1512.75
 20
164.287
 30
0.0
 40
0.0499999
 41
0.0499999
  0
VERTEX
  8
0
 10
1518.47
 20
164.287
 30
0.0
 40
0.0499999
 41
0.0499999
  0
VERTEX
  8
0
 10
1518.47
 20
158.572
 30
0.0
 40
0.0499999
 41
0.0499999
  0
SEQEND
 8
0
  0
POLYLINE
  8
0
 62
     5
 66
     1
 10
0
 20
0
 30
0.0
 70
     1
 40
0.141732
 41
0.141732
  0
VERTEX
  8
0
 10
1518.47
 20
181.433
 30
0.0
 40
0.0499999
 41
0.0499999
  0
VERTEX
  8
0
 10
1518.47
 20
175.718
 30
0.0
 40
0.0499999
 41
0.0499999
  0
VERTEX
  8
0
 10
1512.75
 20
175.718
 30
0.0
 40
0.0499999
 41
0.0499999
  0
VERTEX
  8
0
 10
1512.75
 20
187.147
 30
0.0
 40
0.0499999
 41
0.0499999
  0
VERTEX
  8
0
 10
1518.47
 20
187.147
 30
0.0
 40
0.0499999
 41
0.0499999
  0
VERTEX
  8
0
 10
1518.47
 20
181.433
 30
0.0
 40
0.0499999
 41
0.0499999
  0
SEQEND
 8
0
  0
POLYLINE
  8
0
 62
     5
 66
     1
 10
0
 20
0
 30
0.0
 70
     1
 40
0.141732
 41
0.141732
  0
VERTEX
  8
0
 10
1518.47
 20
204.293
 30
0.0
 40
0.0499999
 41
0.0499999
  0
VERTEX
  8
0
 10
1518.47
 20
198.578
 30
0.0
 40
0.0499999
 41
0.0499999
  0
VERTEX
  8
0
 10
1512.75
 20
198.578
 30
0.0
 40
0.0499999
 41
0.0499999
  0
VERTEX
  8
0
 10
1512.75
 20
210.008
 30
0.0
 40
0.0499999
 41
0.0499999
  0
VERTEX
  8
0
 10
1518.47
 20
210.008
 30
0.0
 40
0.0499999
 41
0.0499999
  0
VERTEX
  8
0
 10
1518.47
 20
204.293
 30
0.0
 40
0.0499999
 41
0.0499999
  0
SEQEND
 8
0
  0
POLYLINE
  8
0
 62
     5
 66
     1
 10
0
 20
0
 30
0.0
 70
     1
 40
0.141732
 41
0.141732
  0
VERTEX
  8
0
 10
1518.47
 20
227.153
 30
0.0
 40
0.0499999
 41
0.0499999
  0
VERTEX
  8
0
 10
1518.47
 20
221.437
 30
0.0
 40
0.0499999
 41
0.0499999
  0
VERTEX
  8
0
 10
1512.75
 20
221.437
 30
0.0
 40
0.0499999
 41
0.0499999
  0
VERTEX
  8
0
 10
1512.75
 20
232.868
 30
0.0
 40
0.0499999
 41
0.0499999
  0
VERTEX
  8
0
 10
1518.47
 20
232.868
 30
0.0
 40
0.0499999
 41
0.0499999
  0
VERTEX
  8
0
 10
1518.47
 20
227.153
 30
0.0
 40
0.0499999
 41
0.0499999
  0
SEQEND
 8
0
  0
POLYLINE
  8
0
 62
     5
 66
     1
 10
0
 20
0
 30
0.0
 70
     1
 40
0.141732
 41
0.141732
  0
VERTEX
  8
0
 10
1518.47
 20
250.012
 30
0.0
 40
0.0499999
 41
0.0499999
  0
VERTEX
  8
0
 10
1518.47
 20
244.297
 30
0.0
 40
0.0499999
 41
0.0499999
  0
VERTEX
  8
0
 10
1512.75
 20
244.297
 30
0.0
 40
0.0499999
 41
0.0499999
  0
VERTEX
  8
0
 10
1512.75
 20
255.728
 30
0.0
 40
0.0499999
 41
0.0499999
  0
VERTEX
  8
0
 10
1518.47
 20
255.728
 30
0.0
 40
0.0499999
 41
0.0499999
  0
VERTEX
  8
0
 10
1518.47
 20
250.012
 30
0.0
 40
0.0499999
 41
0.0499999
  0
SEQEND
 8
0
  0
POLYLINE
  8
0
 62
     5
 66
     1
 10
0
 20
0
 30
0.0
 70
     1
 40
0.141732
 41
0.141732
  0
VERTEX
  8
0
 10
1518.47
 20
272.872
 30
0.0
 40
0.0499999
 41
0.0499999
  0
VERTEX
  8
0
 10
1518.47
 20
267.158
 30
0.0
 40
0.0499999
 41
0.0499999
  0
VERTEX
  8
0
 10
1512.75
 20
267.158
 30
0.0
 40
0.0499999
 41
0.0499999
  0
VERTEX
  8
0
 10
1512.75
 20
278.587
 30
0.0
 40
0.0499999
 41
0.0499999
  0
VERTEX
  8
0
 10
1518.47
 20
278.587
 30
0.0
 40
0.0499999
 41
0.0499999
  0
VERTEX
  8
0
 10
1518.47
 20
272.872
 30
0.0
 40
0.0499999
 41
0.0499999
  0
SEQEND
 8
0
  0
ENDSEC
  0
EOF
